G04 #@! TF.GenerationSoftware,KiCad,Pcbnew,(5.0.2)-1*
G04 #@! TF.CreationDate,2019-10-04T12:42:43+03:00*
G04 #@! TF.ProjectId,Micro-USB-UART,4d696372-6f2d-4555-9342-2d554152542e,rev?*
G04 #@! TF.SameCoordinates,Original*
G04 #@! TF.FileFunction,Copper,L2,Bot*
G04 #@! TF.FilePolarity,Positive*
%FSLAX46Y46*%
G04 Gerber Fmt 4.6, Leading zero omitted, Abs format (unit mm)*
G04 Created by KiCad (PCBNEW (5.0.2)-1) date 04.10.2019 12:42:43*
%MOMM*%
%LPD*%
G01*
G04 APERTURE LIST*
G04 #@! TA.AperFunction,ComponentPad*
%ADD10R,1.700000X1.700000*%
G04 #@! TD*
G04 #@! TA.AperFunction,ComponentPad*
%ADD11O,1.700000X1.700000*%
G04 #@! TD*
G04 #@! TA.AperFunction,ViaPad*
%ADD12C,0.800000*%
G04 #@! TD*
G04 #@! TA.AperFunction,Conductor*
%ADD13C,2.000000*%
G04 #@! TD*
G04 #@! TA.AperFunction,Conductor*
%ADD14C,1.000000*%
G04 #@! TD*
G04 #@! TA.AperFunction,Conductor*
%ADD15C,0.250000*%
G04 #@! TD*
G04 #@! TA.AperFunction,Conductor*
%ADD16C,0.254000*%
G04 #@! TD*
G04 APERTURE END LIST*
D10*
G04 #@! TO.P,J1,1*
G04 #@! TO.N,GND*
X95758000Y-106527600D03*
D11*
G04 #@! TO.P,J1,2*
X93218000Y-106527600D03*
G04 #@! TO.P,J1,3*
G04 #@! TO.N,RTS*
X90678000Y-106527600D03*
G04 #@! TO.P,J1,4*
G04 #@! TO.N,IO1*
X88138000Y-106527600D03*
G04 #@! TO.P,J1,5*
G04 #@! TO.N,IO3*
X85598000Y-106527600D03*
G04 #@! TO.P,J1,6*
G04 #@! TO.N,DTR*
X83058000Y-106527600D03*
G04 #@! TO.P,J1,7*
G04 #@! TO.N,GND*
X80518000Y-106527600D03*
G04 #@! TO.P,J1,8*
X77978000Y-106527600D03*
G04 #@! TO.P,J1,9*
X75438000Y-106527600D03*
G04 #@! TD*
G04 #@! TO.P,J2,9*
G04 #@! TO.N,GND*
X95758000Y-121754900D03*
G04 #@! TO.P,J2,8*
X93218000Y-121754900D03*
G04 #@! TO.P,J2,7*
G04 #@! TO.N,VBUS*
X90678000Y-121754900D03*
G04 #@! TO.P,J2,6*
G04 #@! TO.N,EXT_5V*
X88138000Y-121754900D03*
G04 #@! TO.P,J2,5*
G04 #@! TO.N,+3.3V*
X85598000Y-121754900D03*
G04 #@! TO.P,J2,4*
X83058000Y-121754900D03*
G04 #@! TO.P,J2,3*
G04 #@! TO.N,GND*
X80518000Y-121754900D03*
G04 #@! TO.P,J2,2*
X77978000Y-121754900D03*
D10*
G04 #@! TO.P,J2,1*
X75438000Y-121754900D03*
G04 #@! TD*
D12*
G04 #@! TO.N,GND*
X87376000Y-114858800D03*
X91541600Y-117805200D03*
X90474800Y-112471200D03*
X92557600Y-112471200D03*
X92506800Y-114503200D03*
X90474800Y-114452400D03*
X83502500Y-111252000D03*
G04 #@! TO.N,EXT_5V*
X89103200Y-119380000D03*
X81432400Y-110642400D03*
G04 #@! TO.N,VBUS*
X83464400Y-112979200D03*
G04 #@! TO.N,USB_DN*
X83007200Y-114666091D03*
X87122000Y-113588800D03*
G04 #@! TD*
D13*
G04 #@! TO.N,EXT_5V*
X81032401Y-111042399D02*
X81032401Y-115830401D01*
X81432400Y-110642400D02*
X81032401Y-111042399D01*
X84582000Y-119380000D02*
X81032401Y-115830401D01*
X89103200Y-119380000D02*
X84582000Y-119380000D01*
X88138000Y-121615200D02*
X88138000Y-120345200D01*
X88138000Y-120345200D02*
X89103200Y-119380000D01*
X88138000Y-121754900D02*
X88138000Y-120345200D01*
D14*
G04 #@! TO.N,VBUS*
X84074000Y-112369600D02*
X83864399Y-112579201D01*
X83864399Y-112579201D02*
X83464400Y-112979200D01*
X87731600Y-112369600D02*
X84074000Y-112369600D01*
X88849200Y-113487200D02*
X87731600Y-112369600D01*
X88849200Y-116721822D02*
X88849200Y-113487200D01*
X90678000Y-121615200D02*
X90678000Y-120413119D01*
X90881200Y-118753822D02*
X88849200Y-116721822D01*
X90881200Y-120209919D02*
X90881200Y-118753822D01*
X90678000Y-120413119D02*
X90881200Y-120209919D01*
X90678000Y-121754900D02*
X90678000Y-120413119D01*
D15*
G04 #@! TO.N,USB_DN*
X84084491Y-113588800D02*
X83007200Y-114666091D01*
X87122000Y-113588800D02*
X84084491Y-113588800D01*
G04 #@! TD*
D16*
G04 #@! TO.N,GND*
G36*
X81898424Y-107007912D02*
X82170499Y-107415101D01*
X82577688Y-107687176D01*
X82936761Y-107758600D01*
X83179239Y-107758600D01*
X83538312Y-107687176D01*
X83945501Y-107415101D01*
X84217576Y-107007912D01*
X84222412Y-106983600D01*
X84433588Y-106983600D01*
X84438424Y-107007912D01*
X84710499Y-107415101D01*
X85117688Y-107687176D01*
X85476761Y-107758600D01*
X85719239Y-107758600D01*
X86078312Y-107687176D01*
X86485501Y-107415101D01*
X86757576Y-107007912D01*
X86762412Y-106983600D01*
X86973588Y-106983600D01*
X86978424Y-107007912D01*
X87250499Y-107415101D01*
X87657688Y-107687176D01*
X88016761Y-107758600D01*
X88259239Y-107758600D01*
X88618312Y-107687176D01*
X89025501Y-107415101D01*
X89297576Y-107007912D01*
X89302412Y-106983600D01*
X89513588Y-106983600D01*
X89518424Y-107007912D01*
X89790499Y-107415101D01*
X90197688Y-107687176D01*
X90556761Y-107758600D01*
X90799239Y-107758600D01*
X91158312Y-107687176D01*
X91565501Y-107415101D01*
X91837576Y-107007912D01*
X91842412Y-106983600D01*
X97842001Y-106983600D01*
X97842000Y-121298900D01*
X91842412Y-121298900D01*
X91837576Y-121274588D01*
X91565501Y-120867399D01*
X91559000Y-120863055D01*
X91559000Y-120781276D01*
X91711083Y-120553668D01*
X91762200Y-120296686D01*
X91762200Y-120296682D01*
X91779458Y-120209920D01*
X91762200Y-120123157D01*
X91762200Y-118840585D01*
X91779458Y-118753822D01*
X91762200Y-118667059D01*
X91762200Y-118667055D01*
X91711083Y-118410073D01*
X91516365Y-118118657D01*
X91442807Y-118069507D01*
X89730200Y-116356901D01*
X89730200Y-113573962D01*
X89747458Y-113487199D01*
X89730200Y-113400436D01*
X89730200Y-113400433D01*
X89679083Y-113143451D01*
X89484365Y-112852035D01*
X89410807Y-112802885D01*
X88415917Y-111807995D01*
X88366765Y-111734435D01*
X88075349Y-111539717D01*
X87818367Y-111488600D01*
X87818363Y-111488600D01*
X87731600Y-111471342D01*
X87644837Y-111488600D01*
X84160767Y-111488600D01*
X84074000Y-111471341D01*
X83987233Y-111488600D01*
X83730251Y-111539717D01*
X83438835Y-111734435D01*
X83389683Y-111807996D01*
X82780086Y-112417593D01*
X82634517Y-112635452D01*
X82566142Y-112979200D01*
X82634517Y-113322948D01*
X82829235Y-113614365D01*
X83120652Y-113809083D01*
X83143977Y-113813722D01*
X83072608Y-113885091D01*
X82851849Y-113885091D01*
X82564799Y-114003991D01*
X82413401Y-114155389D01*
X82413401Y-111614427D01*
X82505090Y-111522738D01*
X82733272Y-111181239D01*
X82840454Y-110642401D01*
X82733272Y-110103561D01*
X82428045Y-109646755D01*
X81971239Y-109341528D01*
X81432399Y-109234346D01*
X80893561Y-109341528D01*
X80552062Y-109569710D01*
X80152063Y-109969709D01*
X80036756Y-110046755D01*
X79731528Y-110503561D01*
X79651401Y-110906386D01*
X79651401Y-110906390D01*
X79624347Y-111042399D01*
X79651401Y-111178409D01*
X79651402Y-115694387D01*
X79624347Y-115830401D01*
X79651402Y-115966415D01*
X79731529Y-116369240D01*
X80036757Y-116826046D01*
X80152063Y-116903091D01*
X83509309Y-120260338D01*
X83586355Y-120375645D01*
X84043161Y-120680873D01*
X84445986Y-120761000D01*
X84445990Y-120761000D01*
X84581999Y-120788054D01*
X84718009Y-120761000D01*
X84869736Y-120761000D01*
X84710499Y-120867399D01*
X84438424Y-121274588D01*
X84433588Y-121298900D01*
X84222412Y-121298900D01*
X84217576Y-121274588D01*
X83945501Y-120867399D01*
X83538312Y-120595324D01*
X83179239Y-120523900D01*
X82936761Y-120523900D01*
X82577688Y-120595324D01*
X82170499Y-120867399D01*
X81898424Y-121274588D01*
X81893588Y-121298900D01*
X73354000Y-121298900D01*
X73354000Y-116018491D01*
X76477500Y-116018491D01*
X76477500Y-116289409D01*
X76581176Y-116539706D01*
X76772744Y-116731274D01*
X77023041Y-116834950D01*
X77293959Y-116834950D01*
X77544256Y-116731274D01*
X77735824Y-116539706D01*
X77839500Y-116289409D01*
X77839500Y-116018491D01*
X77735824Y-115768194D01*
X77544256Y-115576626D01*
X77293959Y-115472950D01*
X77023041Y-115472950D01*
X76772744Y-115576626D01*
X76581176Y-115768194D01*
X76477500Y-116018491D01*
X73354000Y-116018491D01*
X73354000Y-112018491D01*
X76477500Y-112018491D01*
X76477500Y-112289409D01*
X76581176Y-112539706D01*
X76772744Y-112731274D01*
X77023041Y-112834950D01*
X77293959Y-112834950D01*
X77544256Y-112731274D01*
X77735824Y-112539706D01*
X77839500Y-112289409D01*
X77839500Y-112018491D01*
X77735824Y-111768194D01*
X77544256Y-111576626D01*
X77293959Y-111472950D01*
X77023041Y-111472950D01*
X76772744Y-111576626D01*
X76581176Y-111768194D01*
X76477500Y-112018491D01*
X73354000Y-112018491D01*
X73354000Y-106983600D01*
X81893588Y-106983600D01*
X81898424Y-107007912D01*
X81898424Y-107007912D01*
G37*
X81898424Y-107007912D02*
X82170499Y-107415101D01*
X82577688Y-107687176D01*
X82936761Y-107758600D01*
X83179239Y-107758600D01*
X83538312Y-107687176D01*
X83945501Y-107415101D01*
X84217576Y-107007912D01*
X84222412Y-106983600D01*
X84433588Y-106983600D01*
X84438424Y-107007912D01*
X84710499Y-107415101D01*
X85117688Y-107687176D01*
X85476761Y-107758600D01*
X85719239Y-107758600D01*
X86078312Y-107687176D01*
X86485501Y-107415101D01*
X86757576Y-107007912D01*
X86762412Y-106983600D01*
X86973588Y-106983600D01*
X86978424Y-107007912D01*
X87250499Y-107415101D01*
X87657688Y-107687176D01*
X88016761Y-107758600D01*
X88259239Y-107758600D01*
X88618312Y-107687176D01*
X89025501Y-107415101D01*
X89297576Y-107007912D01*
X89302412Y-106983600D01*
X89513588Y-106983600D01*
X89518424Y-107007912D01*
X89790499Y-107415101D01*
X90197688Y-107687176D01*
X90556761Y-107758600D01*
X90799239Y-107758600D01*
X91158312Y-107687176D01*
X91565501Y-107415101D01*
X91837576Y-107007912D01*
X91842412Y-106983600D01*
X97842001Y-106983600D01*
X97842000Y-121298900D01*
X91842412Y-121298900D01*
X91837576Y-121274588D01*
X91565501Y-120867399D01*
X91559000Y-120863055D01*
X91559000Y-120781276D01*
X91711083Y-120553668D01*
X91762200Y-120296686D01*
X91762200Y-120296682D01*
X91779458Y-120209920D01*
X91762200Y-120123157D01*
X91762200Y-118840585D01*
X91779458Y-118753822D01*
X91762200Y-118667059D01*
X91762200Y-118667055D01*
X91711083Y-118410073D01*
X91516365Y-118118657D01*
X91442807Y-118069507D01*
X89730200Y-116356901D01*
X89730200Y-113573962D01*
X89747458Y-113487199D01*
X89730200Y-113400436D01*
X89730200Y-113400433D01*
X89679083Y-113143451D01*
X89484365Y-112852035D01*
X89410807Y-112802885D01*
X88415917Y-111807995D01*
X88366765Y-111734435D01*
X88075349Y-111539717D01*
X87818367Y-111488600D01*
X87818363Y-111488600D01*
X87731600Y-111471342D01*
X87644837Y-111488600D01*
X84160767Y-111488600D01*
X84074000Y-111471341D01*
X83987233Y-111488600D01*
X83730251Y-111539717D01*
X83438835Y-111734435D01*
X83389683Y-111807996D01*
X82780086Y-112417593D01*
X82634517Y-112635452D01*
X82566142Y-112979200D01*
X82634517Y-113322948D01*
X82829235Y-113614365D01*
X83120652Y-113809083D01*
X83143977Y-113813722D01*
X83072608Y-113885091D01*
X82851849Y-113885091D01*
X82564799Y-114003991D01*
X82413401Y-114155389D01*
X82413401Y-111614427D01*
X82505090Y-111522738D01*
X82733272Y-111181239D01*
X82840454Y-110642401D01*
X82733272Y-110103561D01*
X82428045Y-109646755D01*
X81971239Y-109341528D01*
X81432399Y-109234346D01*
X80893561Y-109341528D01*
X80552062Y-109569710D01*
X80152063Y-109969709D01*
X80036756Y-110046755D01*
X79731528Y-110503561D01*
X79651401Y-110906386D01*
X79651401Y-110906390D01*
X79624347Y-111042399D01*
X79651401Y-111178409D01*
X79651402Y-115694387D01*
X79624347Y-115830401D01*
X79651402Y-115966415D01*
X79731529Y-116369240D01*
X80036757Y-116826046D01*
X80152063Y-116903091D01*
X83509309Y-120260338D01*
X83586355Y-120375645D01*
X84043161Y-120680873D01*
X84445986Y-120761000D01*
X84445990Y-120761000D01*
X84581999Y-120788054D01*
X84718009Y-120761000D01*
X84869736Y-120761000D01*
X84710499Y-120867399D01*
X84438424Y-121274588D01*
X84433588Y-121298900D01*
X84222412Y-121298900D01*
X84217576Y-121274588D01*
X83945501Y-120867399D01*
X83538312Y-120595324D01*
X83179239Y-120523900D01*
X82936761Y-120523900D01*
X82577688Y-120595324D01*
X82170499Y-120867399D01*
X81898424Y-121274588D01*
X81893588Y-121298900D01*
X73354000Y-121298900D01*
X73354000Y-116018491D01*
X76477500Y-116018491D01*
X76477500Y-116289409D01*
X76581176Y-116539706D01*
X76772744Y-116731274D01*
X77023041Y-116834950D01*
X77293959Y-116834950D01*
X77544256Y-116731274D01*
X77735824Y-116539706D01*
X77839500Y-116289409D01*
X77839500Y-116018491D01*
X77735824Y-115768194D01*
X77544256Y-115576626D01*
X77293959Y-115472950D01*
X77023041Y-115472950D01*
X76772744Y-115576626D01*
X76581176Y-115768194D01*
X76477500Y-116018491D01*
X73354000Y-116018491D01*
X73354000Y-112018491D01*
X76477500Y-112018491D01*
X76477500Y-112289409D01*
X76581176Y-112539706D01*
X76772744Y-112731274D01*
X77023041Y-112834950D01*
X77293959Y-112834950D01*
X77544256Y-112731274D01*
X77735824Y-112539706D01*
X77839500Y-112289409D01*
X77839500Y-112018491D01*
X77735824Y-111768194D01*
X77544256Y-111576626D01*
X77293959Y-111472950D01*
X77023041Y-111472950D01*
X76772744Y-111576626D01*
X76581176Y-111768194D01*
X76477500Y-112018491D01*
X73354000Y-112018491D01*
X73354000Y-106983600D01*
X81893588Y-106983600D01*
X81898424Y-107007912D01*
G36*
X87968201Y-113852123D02*
X87968200Y-116635059D01*
X87950942Y-116721822D01*
X87968200Y-116808585D01*
X87968200Y-116808588D01*
X88019317Y-117065570D01*
X88214035Y-117356987D01*
X88287596Y-117406139D01*
X88880457Y-117999000D01*
X85154029Y-117999000D01*
X82413401Y-115258373D01*
X82413401Y-115176793D01*
X82564799Y-115328191D01*
X82851849Y-115447091D01*
X83162551Y-115447091D01*
X83449601Y-115328191D01*
X83669300Y-115108492D01*
X83788200Y-114821442D01*
X83788200Y-114600683D01*
X84294084Y-114094800D01*
X86523499Y-114094800D01*
X86679599Y-114250900D01*
X86966649Y-114369800D01*
X87277351Y-114369800D01*
X87564401Y-114250900D01*
X87784100Y-114031201D01*
X87890473Y-113774394D01*
X87968201Y-113852123D01*
X87968201Y-113852123D01*
G37*
X87968201Y-113852123D02*
X87968200Y-116635059D01*
X87950942Y-116721822D01*
X87968200Y-116808585D01*
X87968200Y-116808588D01*
X88019317Y-117065570D01*
X88214035Y-117356987D01*
X88287596Y-117406139D01*
X88880457Y-117999000D01*
X85154029Y-117999000D01*
X82413401Y-115258373D01*
X82413401Y-115176793D01*
X82564799Y-115328191D01*
X82851849Y-115447091D01*
X83162551Y-115447091D01*
X83449601Y-115328191D01*
X83669300Y-115108492D01*
X83788200Y-114821442D01*
X83788200Y-114600683D01*
X84294084Y-114094800D01*
X86523499Y-114094800D01*
X86679599Y-114250900D01*
X86966649Y-114369800D01*
X87277351Y-114369800D01*
X87564401Y-114250900D01*
X87784100Y-114031201D01*
X87890473Y-113774394D01*
X87968201Y-113852123D01*
G04 #@! TD*
M02*
