G04 #@! TF.GenerationSoftware,KiCad,Pcbnew,(5.0.2)-1*
G04 #@! TF.CreationDate,2019-10-04T12:42:43+03:00*
G04 #@! TF.ProjectId,Micro-USB-UART,4d696372-6f2d-4555-9342-2d554152542e,rev?*
G04 #@! TF.SameCoordinates,Original*
G04 #@! TF.FileFunction,Copper,L1,Top*
G04 #@! TF.FilePolarity,Positive*
%FSLAX46Y46*%
G04 Gerber Fmt 4.6, Leading zero omitted, Abs format (unit mm)*
G04 Created by KiCad (PCBNEW (5.0.2)-1) date 04.10.2019 12:42:43*
%MOMM*%
%LPD*%
G01*
G04 APERTURE LIST*
G04 #@! TA.AperFunction,Conductor*
%ADD10C,0.100000*%
G04 #@! TD*
G04 #@! TA.AperFunction,SMDPad,CuDef*
%ADD11C,0.875000*%
G04 #@! TD*
G04 #@! TA.AperFunction,SMDPad,CuDef*
%ADD12R,0.500000X1.075000*%
G04 #@! TD*
G04 #@! TA.AperFunction,SMDPad,CuDef*
%ADD13R,0.800000X0.600000*%
G04 #@! TD*
G04 #@! TA.AperFunction,SMDPad,CuDef*
%ADD14R,1.000000X0.300000*%
G04 #@! TD*
G04 #@! TA.AperFunction,SMDPad,CuDef*
%ADD15R,0.300000X1.000000*%
G04 #@! TD*
G04 #@! TA.AperFunction,SMDPad,CuDef*
%ADD16R,3.350000X3.350000*%
G04 #@! TD*
G04 #@! TA.AperFunction,SMDPad,CuDef*
%ADD17R,1.500000X0.400000*%
G04 #@! TD*
G04 #@! TA.AperFunction,SMDPad,CuDef*
%ADD18R,1.400000X1.400000*%
G04 #@! TD*
G04 #@! TA.AperFunction,SMDPad,CuDef*
%ADD19R,1.000000X1.000000*%
G04 #@! TD*
G04 #@! TA.AperFunction,ComponentPad*
%ADD20R,1.700000X1.700000*%
G04 #@! TD*
G04 #@! TA.AperFunction,ComponentPad*
%ADD21O,1.700000X1.700000*%
G04 #@! TD*
G04 #@! TA.AperFunction,ViaPad*
%ADD22C,0.800000*%
G04 #@! TD*
G04 #@! TA.AperFunction,Conductor*
%ADD23C,0.250000*%
G04 #@! TD*
G04 #@! TA.AperFunction,Conductor*
%ADD24C,1.000000*%
G04 #@! TD*
G04 #@! TA.AperFunction,Conductor*
%ADD25C,0.508000*%
G04 #@! TD*
G04 #@! TA.AperFunction,Conductor*
%ADD26C,2.000000*%
G04 #@! TD*
G04 #@! TA.AperFunction,Conductor*
%ADD27C,0.254000*%
G04 #@! TD*
G04 APERTURE END LIST*
D10*
G04 #@! TO.N,GND*
G04 #@! TO.C,C1*
G36*
X87653691Y-114422153D02*
X87674926Y-114425303D01*
X87695750Y-114430519D01*
X87715962Y-114437751D01*
X87735368Y-114446930D01*
X87753781Y-114457966D01*
X87771024Y-114470754D01*
X87786930Y-114485170D01*
X87801346Y-114501076D01*
X87814134Y-114518319D01*
X87825170Y-114536732D01*
X87834349Y-114556138D01*
X87841581Y-114576350D01*
X87846797Y-114597174D01*
X87849947Y-114618409D01*
X87851000Y-114639850D01*
X87851000Y-115077350D01*
X87849947Y-115098791D01*
X87846797Y-115120026D01*
X87841581Y-115140850D01*
X87834349Y-115161062D01*
X87825170Y-115180468D01*
X87814134Y-115198881D01*
X87801346Y-115216124D01*
X87786930Y-115232030D01*
X87771024Y-115246446D01*
X87753781Y-115259234D01*
X87735368Y-115270270D01*
X87715962Y-115279449D01*
X87695750Y-115286681D01*
X87674926Y-115291897D01*
X87653691Y-115295047D01*
X87632250Y-115296100D01*
X87119750Y-115296100D01*
X87098309Y-115295047D01*
X87077074Y-115291897D01*
X87056250Y-115286681D01*
X87036038Y-115279449D01*
X87016632Y-115270270D01*
X86998219Y-115259234D01*
X86980976Y-115246446D01*
X86965070Y-115232030D01*
X86950654Y-115216124D01*
X86937866Y-115198881D01*
X86926830Y-115180468D01*
X86917651Y-115161062D01*
X86910419Y-115140850D01*
X86905203Y-115120026D01*
X86902053Y-115098791D01*
X86901000Y-115077350D01*
X86901000Y-114639850D01*
X86902053Y-114618409D01*
X86905203Y-114597174D01*
X86910419Y-114576350D01*
X86917651Y-114556138D01*
X86926830Y-114536732D01*
X86937866Y-114518319D01*
X86950654Y-114501076D01*
X86965070Y-114485170D01*
X86980976Y-114470754D01*
X86998219Y-114457966D01*
X87016632Y-114446930D01*
X87036038Y-114437751D01*
X87056250Y-114430519D01*
X87077074Y-114425303D01*
X87098309Y-114422153D01*
X87119750Y-114421100D01*
X87632250Y-114421100D01*
X87653691Y-114422153D01*
X87653691Y-114422153D01*
G37*
D11*
G04 #@! TD*
G04 #@! TO.P,C1,2*
G04 #@! TO.N,GND*
X87376000Y-114858600D03*
D10*
G04 #@! TO.N,+3.3V*
G04 #@! TO.C,C1*
G36*
X87653691Y-115997153D02*
X87674926Y-116000303D01*
X87695750Y-116005519D01*
X87715962Y-116012751D01*
X87735368Y-116021930D01*
X87753781Y-116032966D01*
X87771024Y-116045754D01*
X87786930Y-116060170D01*
X87801346Y-116076076D01*
X87814134Y-116093319D01*
X87825170Y-116111732D01*
X87834349Y-116131138D01*
X87841581Y-116151350D01*
X87846797Y-116172174D01*
X87849947Y-116193409D01*
X87851000Y-116214850D01*
X87851000Y-116652350D01*
X87849947Y-116673791D01*
X87846797Y-116695026D01*
X87841581Y-116715850D01*
X87834349Y-116736062D01*
X87825170Y-116755468D01*
X87814134Y-116773881D01*
X87801346Y-116791124D01*
X87786930Y-116807030D01*
X87771024Y-116821446D01*
X87753781Y-116834234D01*
X87735368Y-116845270D01*
X87715962Y-116854449D01*
X87695750Y-116861681D01*
X87674926Y-116866897D01*
X87653691Y-116870047D01*
X87632250Y-116871100D01*
X87119750Y-116871100D01*
X87098309Y-116870047D01*
X87077074Y-116866897D01*
X87056250Y-116861681D01*
X87036038Y-116854449D01*
X87016632Y-116845270D01*
X86998219Y-116834234D01*
X86980976Y-116821446D01*
X86965070Y-116807030D01*
X86950654Y-116791124D01*
X86937866Y-116773881D01*
X86926830Y-116755468D01*
X86917651Y-116736062D01*
X86910419Y-116715850D01*
X86905203Y-116695026D01*
X86902053Y-116673791D01*
X86901000Y-116652350D01*
X86901000Y-116214850D01*
X86902053Y-116193409D01*
X86905203Y-116172174D01*
X86910419Y-116151350D01*
X86917651Y-116131138D01*
X86926830Y-116111732D01*
X86937866Y-116093319D01*
X86950654Y-116076076D01*
X86965070Y-116060170D01*
X86980976Y-116045754D01*
X86998219Y-116032966D01*
X87016632Y-116021930D01*
X87036038Y-116012751D01*
X87056250Y-116005519D01*
X87077074Y-116000303D01*
X87098309Y-115997153D01*
X87119750Y-115996100D01*
X87632250Y-115996100D01*
X87653691Y-115997153D01*
X87653691Y-115997153D01*
G37*
D11*
G04 #@! TD*
G04 #@! TO.P,C1,1*
G04 #@! TO.N,+3.3V*
X87376000Y-116433600D03*
D10*
G04 #@! TO.N,+3.3V*
G04 #@! TO.C,C2*
G36*
X86129691Y-115997153D02*
X86150926Y-116000303D01*
X86171750Y-116005519D01*
X86191962Y-116012751D01*
X86211368Y-116021930D01*
X86229781Y-116032966D01*
X86247024Y-116045754D01*
X86262930Y-116060170D01*
X86277346Y-116076076D01*
X86290134Y-116093319D01*
X86301170Y-116111732D01*
X86310349Y-116131138D01*
X86317581Y-116151350D01*
X86322797Y-116172174D01*
X86325947Y-116193409D01*
X86327000Y-116214850D01*
X86327000Y-116652350D01*
X86325947Y-116673791D01*
X86322797Y-116695026D01*
X86317581Y-116715850D01*
X86310349Y-116736062D01*
X86301170Y-116755468D01*
X86290134Y-116773881D01*
X86277346Y-116791124D01*
X86262930Y-116807030D01*
X86247024Y-116821446D01*
X86229781Y-116834234D01*
X86211368Y-116845270D01*
X86191962Y-116854449D01*
X86171750Y-116861681D01*
X86150926Y-116866897D01*
X86129691Y-116870047D01*
X86108250Y-116871100D01*
X85595750Y-116871100D01*
X85574309Y-116870047D01*
X85553074Y-116866897D01*
X85532250Y-116861681D01*
X85512038Y-116854449D01*
X85492632Y-116845270D01*
X85474219Y-116834234D01*
X85456976Y-116821446D01*
X85441070Y-116807030D01*
X85426654Y-116791124D01*
X85413866Y-116773881D01*
X85402830Y-116755468D01*
X85393651Y-116736062D01*
X85386419Y-116715850D01*
X85381203Y-116695026D01*
X85378053Y-116673791D01*
X85377000Y-116652350D01*
X85377000Y-116214850D01*
X85378053Y-116193409D01*
X85381203Y-116172174D01*
X85386419Y-116151350D01*
X85393651Y-116131138D01*
X85402830Y-116111732D01*
X85413866Y-116093319D01*
X85426654Y-116076076D01*
X85441070Y-116060170D01*
X85456976Y-116045754D01*
X85474219Y-116032966D01*
X85492632Y-116021930D01*
X85512038Y-116012751D01*
X85532250Y-116005519D01*
X85553074Y-116000303D01*
X85574309Y-115997153D01*
X85595750Y-115996100D01*
X86108250Y-115996100D01*
X86129691Y-115997153D01*
X86129691Y-115997153D01*
G37*
D11*
G04 #@! TD*
G04 #@! TO.P,C2,1*
G04 #@! TO.N,+3.3V*
X85852000Y-116433600D03*
D10*
G04 #@! TO.N,GND*
G04 #@! TO.C,C2*
G36*
X86129691Y-114422153D02*
X86150926Y-114425303D01*
X86171750Y-114430519D01*
X86191962Y-114437751D01*
X86211368Y-114446930D01*
X86229781Y-114457966D01*
X86247024Y-114470754D01*
X86262930Y-114485170D01*
X86277346Y-114501076D01*
X86290134Y-114518319D01*
X86301170Y-114536732D01*
X86310349Y-114556138D01*
X86317581Y-114576350D01*
X86322797Y-114597174D01*
X86325947Y-114618409D01*
X86327000Y-114639850D01*
X86327000Y-115077350D01*
X86325947Y-115098791D01*
X86322797Y-115120026D01*
X86317581Y-115140850D01*
X86310349Y-115161062D01*
X86301170Y-115180468D01*
X86290134Y-115198881D01*
X86277346Y-115216124D01*
X86262930Y-115232030D01*
X86247024Y-115246446D01*
X86229781Y-115259234D01*
X86211368Y-115270270D01*
X86191962Y-115279449D01*
X86171750Y-115286681D01*
X86150926Y-115291897D01*
X86129691Y-115295047D01*
X86108250Y-115296100D01*
X85595750Y-115296100D01*
X85574309Y-115295047D01*
X85553074Y-115291897D01*
X85532250Y-115286681D01*
X85512038Y-115279449D01*
X85492632Y-115270270D01*
X85474219Y-115259234D01*
X85456976Y-115246446D01*
X85441070Y-115232030D01*
X85426654Y-115216124D01*
X85413866Y-115198881D01*
X85402830Y-115180468D01*
X85393651Y-115161062D01*
X85386419Y-115140850D01*
X85381203Y-115120026D01*
X85378053Y-115098791D01*
X85377000Y-115077350D01*
X85377000Y-114639850D01*
X85378053Y-114618409D01*
X85381203Y-114597174D01*
X85386419Y-114576350D01*
X85393651Y-114556138D01*
X85402830Y-114536732D01*
X85413866Y-114518319D01*
X85426654Y-114501076D01*
X85441070Y-114485170D01*
X85456976Y-114470754D01*
X85474219Y-114457966D01*
X85492632Y-114446930D01*
X85512038Y-114437751D01*
X85532250Y-114430519D01*
X85553074Y-114425303D01*
X85574309Y-114422153D01*
X85595750Y-114421100D01*
X86108250Y-114421100D01*
X86129691Y-114422153D01*
X86129691Y-114422153D01*
G37*
D11*
G04 #@! TD*
G04 #@! TO.P,C2,2*
G04 #@! TO.N,GND*
X85852000Y-114858600D03*
D12*
G04 #@! TO.P,D1,1*
G04 #@! TO.N,EXT_5V*
X81407000Y-110661500D03*
G04 #@! TO.P,D1,2*
G04 #@! TO.N,VBUS*
X81407000Y-112985500D03*
G04 #@! TD*
D13*
G04 #@! TO.P,D2,1*
G04 #@! TO.N,VBUS*
X83502500Y-112991000D03*
G04 #@! TO.P,D2,2*
G04 #@! TO.N,GND*
X83502500Y-111291000D03*
G04 #@! TD*
G04 #@! TO.P,D3,2*
G04 #@! TO.N,GND*
X81534000Y-116466100D03*
G04 #@! TO.P,D3,1*
G04 #@! TO.N,USB_DP*
X81534000Y-114766100D03*
G04 #@! TD*
G04 #@! TO.P,D4,1*
G04 #@! TO.N,USB_DN*
X82994500Y-114766100D03*
G04 #@! TO.P,D4,2*
G04 #@! TO.N,GND*
X82994500Y-116466100D03*
G04 #@! TD*
D14*
G04 #@! TO.P,IC1,1*
G04 #@! TO.N,N/C*
X89140800Y-111987200D03*
G04 #@! TO.P,IC1,2*
X89140800Y-112487200D03*
G04 #@! TO.P,IC1,3*
G04 #@! TO.N,GND*
X89140800Y-112987200D03*
G04 #@! TO.P,IC1,4*
G04 #@! TO.N,USB_DP*
X89140800Y-113487200D03*
G04 #@! TO.P,IC1,5*
G04 #@! TO.N,USB_DN*
X89140800Y-113987200D03*
G04 #@! TO.P,IC1,6*
G04 #@! TO.N,+3.3V*
X89140800Y-114487200D03*
G04 #@! TO.P,IC1,7*
X89140800Y-114987200D03*
D15*
G04 #@! TO.P,IC1,8*
G04 #@! TO.N,Net-(IC1-Pad8)*
X89990800Y-115837200D03*
G04 #@! TO.P,IC1,9*
G04 #@! TO.N,Net-(IC1-Pad9)*
X90490800Y-115837200D03*
G04 #@! TO.P,IC1,10*
G04 #@! TO.N,N/C*
X90990800Y-115837200D03*
G04 #@! TO.P,IC1,11*
X91490800Y-115837200D03*
G04 #@! TO.P,IC1,12*
X91990800Y-115837200D03*
G04 #@! TO.P,IC1,13*
X92490800Y-115837200D03*
G04 #@! TO.P,IC1,14*
X92990800Y-115837200D03*
D14*
G04 #@! TO.P,IC1,15*
X93840800Y-114987200D03*
G04 #@! TO.P,IC1,16*
X93840800Y-114487200D03*
G04 #@! TO.P,IC1,17*
X93840800Y-113987200D03*
G04 #@! TO.P,IC1,18*
X93840800Y-113487200D03*
G04 #@! TO.P,IC1,19*
X93840800Y-112987200D03*
G04 #@! TO.P,IC1,20*
X93840800Y-112487200D03*
G04 #@! TO.P,IC1,21*
X93840800Y-111987200D03*
D15*
G04 #@! TO.P,IC1,22*
X92990800Y-111137200D03*
G04 #@! TO.P,IC1,23*
X92490800Y-111137200D03*
G04 #@! TO.P,IC1,24*
G04 #@! TO.N,RTS*
X91990800Y-111137200D03*
G04 #@! TO.P,IC1,25*
G04 #@! TO.N,IO1*
X91490800Y-111137200D03*
G04 #@! TO.P,IC1,26*
G04 #@! TO.N,IO3*
X90990800Y-111137200D03*
G04 #@! TO.P,IC1,27*
G04 #@! TO.N,N/C*
X90490800Y-111137200D03*
G04 #@! TO.P,IC1,28*
G04 #@! TO.N,DTR*
X89990800Y-111137200D03*
D16*
G04 #@! TO.P,IC1,29*
G04 #@! TO.N,GND*
X91490800Y-113487200D03*
G04 #@! TD*
D10*
G04 #@! TO.N,Net-(IC1-Pad8)*
G04 #@! TO.C,R1*
G36*
X89380891Y-117343253D02*
X89402126Y-117346403D01*
X89422950Y-117351619D01*
X89443162Y-117358851D01*
X89462568Y-117368030D01*
X89480981Y-117379066D01*
X89498224Y-117391854D01*
X89514130Y-117406270D01*
X89528546Y-117422176D01*
X89541334Y-117439419D01*
X89552370Y-117457832D01*
X89561549Y-117477238D01*
X89568781Y-117497450D01*
X89573997Y-117518274D01*
X89577147Y-117539509D01*
X89578200Y-117560950D01*
X89578200Y-117998450D01*
X89577147Y-118019891D01*
X89573997Y-118041126D01*
X89568781Y-118061950D01*
X89561549Y-118082162D01*
X89552370Y-118101568D01*
X89541334Y-118119981D01*
X89528546Y-118137224D01*
X89514130Y-118153130D01*
X89498224Y-118167546D01*
X89480981Y-118180334D01*
X89462568Y-118191370D01*
X89443162Y-118200549D01*
X89422950Y-118207781D01*
X89402126Y-118212997D01*
X89380891Y-118216147D01*
X89359450Y-118217200D01*
X88846950Y-118217200D01*
X88825509Y-118216147D01*
X88804274Y-118212997D01*
X88783450Y-118207781D01*
X88763238Y-118200549D01*
X88743832Y-118191370D01*
X88725419Y-118180334D01*
X88708176Y-118167546D01*
X88692270Y-118153130D01*
X88677854Y-118137224D01*
X88665066Y-118119981D01*
X88654030Y-118101568D01*
X88644851Y-118082162D01*
X88637619Y-118061950D01*
X88632403Y-118041126D01*
X88629253Y-118019891D01*
X88628200Y-117998450D01*
X88628200Y-117560950D01*
X88629253Y-117539509D01*
X88632403Y-117518274D01*
X88637619Y-117497450D01*
X88644851Y-117477238D01*
X88654030Y-117457832D01*
X88665066Y-117439419D01*
X88677854Y-117422176D01*
X88692270Y-117406270D01*
X88708176Y-117391854D01*
X88725419Y-117379066D01*
X88743832Y-117368030D01*
X88763238Y-117358851D01*
X88783450Y-117351619D01*
X88804274Y-117346403D01*
X88825509Y-117343253D01*
X88846950Y-117342200D01*
X89359450Y-117342200D01*
X89380891Y-117343253D01*
X89380891Y-117343253D01*
G37*
D11*
G04 #@! TD*
G04 #@! TO.P,R1,1*
G04 #@! TO.N,Net-(IC1-Pad8)*
X89103200Y-117779700D03*
D10*
G04 #@! TO.N,EXT_5V*
G04 #@! TO.C,R1*
G36*
X89380891Y-118918253D02*
X89402126Y-118921403D01*
X89422950Y-118926619D01*
X89443162Y-118933851D01*
X89462568Y-118943030D01*
X89480981Y-118954066D01*
X89498224Y-118966854D01*
X89514130Y-118981270D01*
X89528546Y-118997176D01*
X89541334Y-119014419D01*
X89552370Y-119032832D01*
X89561549Y-119052238D01*
X89568781Y-119072450D01*
X89573997Y-119093274D01*
X89577147Y-119114509D01*
X89578200Y-119135950D01*
X89578200Y-119573450D01*
X89577147Y-119594891D01*
X89573997Y-119616126D01*
X89568781Y-119636950D01*
X89561549Y-119657162D01*
X89552370Y-119676568D01*
X89541334Y-119694981D01*
X89528546Y-119712224D01*
X89514130Y-119728130D01*
X89498224Y-119742546D01*
X89480981Y-119755334D01*
X89462568Y-119766370D01*
X89443162Y-119775549D01*
X89422950Y-119782781D01*
X89402126Y-119787997D01*
X89380891Y-119791147D01*
X89359450Y-119792200D01*
X88846950Y-119792200D01*
X88825509Y-119791147D01*
X88804274Y-119787997D01*
X88783450Y-119782781D01*
X88763238Y-119775549D01*
X88743832Y-119766370D01*
X88725419Y-119755334D01*
X88708176Y-119742546D01*
X88692270Y-119728130D01*
X88677854Y-119712224D01*
X88665066Y-119694981D01*
X88654030Y-119676568D01*
X88644851Y-119657162D01*
X88637619Y-119636950D01*
X88632403Y-119616126D01*
X88629253Y-119594891D01*
X88628200Y-119573450D01*
X88628200Y-119135950D01*
X88629253Y-119114509D01*
X88632403Y-119093274D01*
X88637619Y-119072450D01*
X88644851Y-119052238D01*
X88654030Y-119032832D01*
X88665066Y-119014419D01*
X88677854Y-118997176D01*
X88692270Y-118981270D01*
X88708176Y-118966854D01*
X88725419Y-118954066D01*
X88743832Y-118943030D01*
X88763238Y-118933851D01*
X88783450Y-118926619D01*
X88804274Y-118921403D01*
X88825509Y-118918253D01*
X88846950Y-118917200D01*
X89359450Y-118917200D01*
X89380891Y-118918253D01*
X89380891Y-118918253D01*
G37*
D11*
G04 #@! TD*
G04 #@! TO.P,R1,2*
G04 #@! TO.N,EXT_5V*
X89103200Y-119354700D03*
D10*
G04 #@! TO.N,Net-(IC1-Pad9)*
G04 #@! TO.C,R2*
G36*
X93343291Y-117343253D02*
X93364526Y-117346403D01*
X93385350Y-117351619D01*
X93405562Y-117358851D01*
X93424968Y-117368030D01*
X93443381Y-117379066D01*
X93460624Y-117391854D01*
X93476530Y-117406270D01*
X93490946Y-117422176D01*
X93503734Y-117439419D01*
X93514770Y-117457832D01*
X93523949Y-117477238D01*
X93531181Y-117497450D01*
X93536397Y-117518274D01*
X93539547Y-117539509D01*
X93540600Y-117560950D01*
X93540600Y-117998450D01*
X93539547Y-118019891D01*
X93536397Y-118041126D01*
X93531181Y-118061950D01*
X93523949Y-118082162D01*
X93514770Y-118101568D01*
X93503734Y-118119981D01*
X93490946Y-118137224D01*
X93476530Y-118153130D01*
X93460624Y-118167546D01*
X93443381Y-118180334D01*
X93424968Y-118191370D01*
X93405562Y-118200549D01*
X93385350Y-118207781D01*
X93364526Y-118212997D01*
X93343291Y-118216147D01*
X93321850Y-118217200D01*
X92809350Y-118217200D01*
X92787909Y-118216147D01*
X92766674Y-118212997D01*
X92745850Y-118207781D01*
X92725638Y-118200549D01*
X92706232Y-118191370D01*
X92687819Y-118180334D01*
X92670576Y-118167546D01*
X92654670Y-118153130D01*
X92640254Y-118137224D01*
X92627466Y-118119981D01*
X92616430Y-118101568D01*
X92607251Y-118082162D01*
X92600019Y-118061950D01*
X92594803Y-118041126D01*
X92591653Y-118019891D01*
X92590600Y-117998450D01*
X92590600Y-117560950D01*
X92591653Y-117539509D01*
X92594803Y-117518274D01*
X92600019Y-117497450D01*
X92607251Y-117477238D01*
X92616430Y-117457832D01*
X92627466Y-117439419D01*
X92640254Y-117422176D01*
X92654670Y-117406270D01*
X92670576Y-117391854D01*
X92687819Y-117379066D01*
X92706232Y-117368030D01*
X92725638Y-117358851D01*
X92745850Y-117351619D01*
X92766674Y-117346403D01*
X92787909Y-117343253D01*
X92809350Y-117342200D01*
X93321850Y-117342200D01*
X93343291Y-117343253D01*
X93343291Y-117343253D01*
G37*
D11*
G04 #@! TD*
G04 #@! TO.P,R2,1*
G04 #@! TO.N,Net-(IC1-Pad9)*
X93065600Y-117779700D03*
D10*
G04 #@! TO.N,+3.3V*
G04 #@! TO.C,R2*
G36*
X93343291Y-118918253D02*
X93364526Y-118921403D01*
X93385350Y-118926619D01*
X93405562Y-118933851D01*
X93424968Y-118943030D01*
X93443381Y-118954066D01*
X93460624Y-118966854D01*
X93476530Y-118981270D01*
X93490946Y-118997176D01*
X93503734Y-119014419D01*
X93514770Y-119032832D01*
X93523949Y-119052238D01*
X93531181Y-119072450D01*
X93536397Y-119093274D01*
X93539547Y-119114509D01*
X93540600Y-119135950D01*
X93540600Y-119573450D01*
X93539547Y-119594891D01*
X93536397Y-119616126D01*
X93531181Y-119636950D01*
X93523949Y-119657162D01*
X93514770Y-119676568D01*
X93503734Y-119694981D01*
X93490946Y-119712224D01*
X93476530Y-119728130D01*
X93460624Y-119742546D01*
X93443381Y-119755334D01*
X93424968Y-119766370D01*
X93405562Y-119775549D01*
X93385350Y-119782781D01*
X93364526Y-119787997D01*
X93343291Y-119791147D01*
X93321850Y-119792200D01*
X92809350Y-119792200D01*
X92787909Y-119791147D01*
X92766674Y-119787997D01*
X92745850Y-119782781D01*
X92725638Y-119775549D01*
X92706232Y-119766370D01*
X92687819Y-119755334D01*
X92670576Y-119742546D01*
X92654670Y-119728130D01*
X92640254Y-119712224D01*
X92627466Y-119694981D01*
X92616430Y-119676568D01*
X92607251Y-119657162D01*
X92600019Y-119636950D01*
X92594803Y-119616126D01*
X92591653Y-119594891D01*
X92590600Y-119573450D01*
X92590600Y-119135950D01*
X92591653Y-119114509D01*
X92594803Y-119093274D01*
X92600019Y-119072450D01*
X92607251Y-119052238D01*
X92616430Y-119032832D01*
X92627466Y-119014419D01*
X92640254Y-118997176D01*
X92654670Y-118981270D01*
X92670576Y-118966854D01*
X92687819Y-118954066D01*
X92706232Y-118943030D01*
X92725638Y-118933851D01*
X92745850Y-118926619D01*
X92766674Y-118921403D01*
X92787909Y-118918253D01*
X92809350Y-118917200D01*
X93321850Y-118917200D01*
X93343291Y-118918253D01*
X93343291Y-118918253D01*
G37*
D11*
G04 #@! TD*
G04 #@! TO.P,R2,2*
G04 #@! TO.N,+3.3V*
X93065600Y-119354700D03*
D10*
G04 #@! TO.N,Net-(IC1-Pad8)*
G04 #@! TO.C,R3*
G36*
X91819291Y-118918253D02*
X91840526Y-118921403D01*
X91861350Y-118926619D01*
X91881562Y-118933851D01*
X91900968Y-118943030D01*
X91919381Y-118954066D01*
X91936624Y-118966854D01*
X91952530Y-118981270D01*
X91966946Y-118997176D01*
X91979734Y-119014419D01*
X91990770Y-119032832D01*
X91999949Y-119052238D01*
X92007181Y-119072450D01*
X92012397Y-119093274D01*
X92015547Y-119114509D01*
X92016600Y-119135950D01*
X92016600Y-119573450D01*
X92015547Y-119594891D01*
X92012397Y-119616126D01*
X92007181Y-119636950D01*
X91999949Y-119657162D01*
X91990770Y-119676568D01*
X91979734Y-119694981D01*
X91966946Y-119712224D01*
X91952530Y-119728130D01*
X91936624Y-119742546D01*
X91919381Y-119755334D01*
X91900968Y-119766370D01*
X91881562Y-119775549D01*
X91861350Y-119782781D01*
X91840526Y-119787997D01*
X91819291Y-119791147D01*
X91797850Y-119792200D01*
X91285350Y-119792200D01*
X91263909Y-119791147D01*
X91242674Y-119787997D01*
X91221850Y-119782781D01*
X91201638Y-119775549D01*
X91182232Y-119766370D01*
X91163819Y-119755334D01*
X91146576Y-119742546D01*
X91130670Y-119728130D01*
X91116254Y-119712224D01*
X91103466Y-119694981D01*
X91092430Y-119676568D01*
X91083251Y-119657162D01*
X91076019Y-119636950D01*
X91070803Y-119616126D01*
X91067653Y-119594891D01*
X91066600Y-119573450D01*
X91066600Y-119135950D01*
X91067653Y-119114509D01*
X91070803Y-119093274D01*
X91076019Y-119072450D01*
X91083251Y-119052238D01*
X91092430Y-119032832D01*
X91103466Y-119014419D01*
X91116254Y-118997176D01*
X91130670Y-118981270D01*
X91146576Y-118966854D01*
X91163819Y-118954066D01*
X91182232Y-118943030D01*
X91201638Y-118933851D01*
X91221850Y-118926619D01*
X91242674Y-118921403D01*
X91263909Y-118918253D01*
X91285350Y-118917200D01*
X91797850Y-118917200D01*
X91819291Y-118918253D01*
X91819291Y-118918253D01*
G37*
D11*
G04 #@! TD*
G04 #@! TO.P,R3,2*
G04 #@! TO.N,Net-(IC1-Pad8)*
X91541600Y-119354700D03*
D10*
G04 #@! TO.N,GND*
G04 #@! TO.C,R3*
G36*
X91819291Y-117343253D02*
X91840526Y-117346403D01*
X91861350Y-117351619D01*
X91881562Y-117358851D01*
X91900968Y-117368030D01*
X91919381Y-117379066D01*
X91936624Y-117391854D01*
X91952530Y-117406270D01*
X91966946Y-117422176D01*
X91979734Y-117439419D01*
X91990770Y-117457832D01*
X91999949Y-117477238D01*
X92007181Y-117497450D01*
X92012397Y-117518274D01*
X92015547Y-117539509D01*
X92016600Y-117560950D01*
X92016600Y-117998450D01*
X92015547Y-118019891D01*
X92012397Y-118041126D01*
X92007181Y-118061950D01*
X91999949Y-118082162D01*
X91990770Y-118101568D01*
X91979734Y-118119981D01*
X91966946Y-118137224D01*
X91952530Y-118153130D01*
X91936624Y-118167546D01*
X91919381Y-118180334D01*
X91900968Y-118191370D01*
X91881562Y-118200549D01*
X91861350Y-118207781D01*
X91840526Y-118212997D01*
X91819291Y-118216147D01*
X91797850Y-118217200D01*
X91285350Y-118217200D01*
X91263909Y-118216147D01*
X91242674Y-118212997D01*
X91221850Y-118207781D01*
X91201638Y-118200549D01*
X91182232Y-118191370D01*
X91163819Y-118180334D01*
X91146576Y-118167546D01*
X91130670Y-118153130D01*
X91116254Y-118137224D01*
X91103466Y-118119981D01*
X91092430Y-118101568D01*
X91083251Y-118082162D01*
X91076019Y-118061950D01*
X91070803Y-118041126D01*
X91067653Y-118019891D01*
X91066600Y-117998450D01*
X91066600Y-117560950D01*
X91067653Y-117539509D01*
X91070803Y-117518274D01*
X91076019Y-117497450D01*
X91083251Y-117477238D01*
X91092430Y-117457832D01*
X91103466Y-117439419D01*
X91116254Y-117422176D01*
X91130670Y-117406270D01*
X91146576Y-117391854D01*
X91163819Y-117379066D01*
X91182232Y-117368030D01*
X91201638Y-117358851D01*
X91221850Y-117351619D01*
X91242674Y-117346403D01*
X91263909Y-117343253D01*
X91285350Y-117342200D01*
X91797850Y-117342200D01*
X91819291Y-117343253D01*
X91819291Y-117343253D01*
G37*
D11*
G04 #@! TD*
G04 #@! TO.P,R3,1*
G04 #@! TO.N,GND*
X91541600Y-117779700D03*
D17*
G04 #@! TO.P,USB1,1*
G04 #@! TO.N,VBUS*
X78408500Y-112853950D03*
G04 #@! TO.P,USB1,2*
G04 #@! TO.N,USB_DN*
X78408500Y-113503950D03*
G04 #@! TO.P,USB1,3*
G04 #@! TO.N,USB_DP*
X78408500Y-114153950D03*
G04 #@! TO.P,USB1,4*
G04 #@! TO.N,N/C*
X78408500Y-114803950D03*
G04 #@! TO.P,USB1,5*
G04 #@! TO.N,GND*
X78408500Y-115453950D03*
D18*
G04 #@! TO.P,USB1,6*
X77708500Y-110903950D03*
X77708500Y-117403950D03*
X75008500Y-110103950D03*
X75008500Y-118203950D03*
D19*
X73808500Y-112653950D03*
X73808500Y-115678950D03*
G04 #@! TD*
D20*
G04 #@! TO.P,J1,1*
G04 #@! TO.N,GND*
X95758000Y-106527600D03*
D21*
G04 #@! TO.P,J1,2*
X93218000Y-106527600D03*
G04 #@! TO.P,J1,3*
G04 #@! TO.N,RTS*
X90678000Y-106527600D03*
G04 #@! TO.P,J1,4*
G04 #@! TO.N,IO1*
X88138000Y-106527600D03*
G04 #@! TO.P,J1,5*
G04 #@! TO.N,IO3*
X85598000Y-106527600D03*
G04 #@! TO.P,J1,6*
G04 #@! TO.N,DTR*
X83058000Y-106527600D03*
G04 #@! TO.P,J1,7*
G04 #@! TO.N,GND*
X80518000Y-106527600D03*
G04 #@! TO.P,J1,8*
X77978000Y-106527600D03*
G04 #@! TO.P,J1,9*
X75438000Y-106527600D03*
G04 #@! TD*
G04 #@! TO.P,J2,9*
G04 #@! TO.N,GND*
X95758000Y-121754900D03*
G04 #@! TO.P,J2,8*
X93218000Y-121754900D03*
G04 #@! TO.P,J2,7*
G04 #@! TO.N,VBUS*
X90678000Y-121754900D03*
G04 #@! TO.P,J2,6*
G04 #@! TO.N,EXT_5V*
X88138000Y-121754900D03*
G04 #@! TO.P,J2,5*
G04 #@! TO.N,+3.3V*
X85598000Y-121754900D03*
G04 #@! TO.P,J2,4*
X83058000Y-121754900D03*
G04 #@! TO.P,J2,3*
G04 #@! TO.N,GND*
X80518000Y-121754900D03*
G04 #@! TO.P,J2,2*
X77978000Y-121754900D03*
D20*
G04 #@! TO.P,J2,1*
X75438000Y-121754900D03*
G04 #@! TD*
D22*
G04 #@! TO.N,GND*
X87376000Y-114858800D03*
X91541600Y-117805200D03*
X90474800Y-112471200D03*
X92557600Y-112471200D03*
X92506800Y-114503200D03*
X90474800Y-114452400D03*
X83502500Y-111252000D03*
G04 #@! TO.N,EXT_5V*
X89103200Y-119380000D03*
X81432400Y-110642400D03*
G04 #@! TO.N,VBUS*
X83464400Y-112979200D03*
G04 #@! TO.N,USB_DN*
X83007200Y-114666091D03*
X87122000Y-113588800D03*
G04 #@! TD*
D23*
G04 #@! TO.N,GND*
X90990800Y-112987200D02*
X91490800Y-113487200D01*
X89140800Y-112987200D02*
X90990800Y-112987200D01*
D24*
X83502500Y-111291000D02*
X83502500Y-111252000D01*
X83502500Y-109512100D02*
X83502500Y-111252000D01*
X80518000Y-106527600D02*
X83502500Y-109512100D01*
X83502500Y-111252000D02*
X83502500Y-110045500D01*
G04 #@! TO.N,+3.3V*
X87694400Y-116433600D02*
X89115799Y-115012201D01*
X85852000Y-116433600D02*
X87694400Y-116433600D01*
D23*
X89140800Y-114487200D02*
X89140800Y-114987200D01*
D24*
X85852000Y-121361200D02*
X85598000Y-121615200D01*
X85852000Y-116433600D02*
X85852000Y-120040400D01*
X85852000Y-120040400D02*
X85852000Y-121361200D01*
D25*
X86447999Y-120765201D02*
X85598000Y-121615200D01*
X86966990Y-120246210D02*
X86447999Y-120765201D01*
X92174090Y-120246210D02*
X86966990Y-120246210D01*
X93065600Y-119354700D02*
X92174090Y-120246210D01*
D26*
X83058000Y-121754900D02*
X85598000Y-121754900D01*
D24*
G04 #@! TO.N,VBUS*
X81412500Y-112991000D02*
X81407000Y-112985500D01*
X83502500Y-112991000D02*
X83464400Y-112979200D01*
X83464400Y-112979200D02*
X81412500Y-112991000D01*
X81407000Y-112985500D02*
X81337100Y-112985500D01*
X81337100Y-112985500D02*
X80873600Y-112522000D01*
X80873600Y-112522000D02*
X78333600Y-112522000D01*
D23*
G04 #@! TO.N,USB_DP*
X81396850Y-114903250D02*
X81534000Y-114766100D01*
X81534000Y-114766100D02*
X81634000Y-114766100D01*
X81634000Y-114766100D02*
X82259001Y-115391101D01*
X88161990Y-113487200D02*
X88390800Y-113487200D01*
X88390800Y-113487200D02*
X89140800Y-113487200D01*
X87501590Y-112826800D02*
X88161990Y-113487200D01*
X86639805Y-112826800D02*
X87501590Y-112826800D01*
X84075504Y-115391101D02*
X86639805Y-112826800D01*
X82259001Y-115391101D02*
X84075504Y-115391101D01*
X79293502Y-114153950D02*
X78408500Y-114153950D01*
X79905652Y-114766100D02*
X79293502Y-114153950D01*
X81534000Y-114766100D02*
X79905652Y-114766100D01*
G04 #@! TO.N,USB_DN*
X82894500Y-114766100D02*
X82994500Y-114766100D01*
X82269499Y-114141099D02*
X82894500Y-114766100D01*
X89140800Y-113987200D02*
X87571200Y-113987200D01*
X87521999Y-113988799D02*
X87122000Y-113588800D01*
X87569601Y-113988799D02*
X87521999Y-113988799D01*
X87571200Y-113987200D02*
X87569601Y-113988799D01*
X81190097Y-114141099D02*
X82269499Y-114141099D01*
X80552948Y-113503950D02*
X81190097Y-114141099D01*
X78408500Y-113503950D02*
X80552948Y-113503950D01*
G04 #@! TO.N,Net-(IC1-Pad8)*
X89990800Y-117752900D02*
X90017600Y-117779700D01*
X89990800Y-115837200D02*
X89990800Y-117752900D01*
X90017600Y-117830700D02*
X91541600Y-119354700D01*
X90017600Y-117779700D02*
X90017600Y-117830700D01*
X90017600Y-117779700D02*
X89103200Y-117779700D01*
G04 #@! TO.N,Net-(IC1-Pad9)*
X92603988Y-117318088D02*
X93065600Y-117779700D01*
X92303090Y-117017190D02*
X92603988Y-117318088D01*
X90920790Y-117017190D02*
X92303090Y-117017190D01*
X90490800Y-116587200D02*
X90920790Y-117017190D01*
X90490800Y-115837200D02*
X90490800Y-116587200D01*
G04 #@! TO.N,RTS*
X91990800Y-111137200D02*
X91990800Y-108373800D01*
X91990800Y-107840400D02*
X90976410Y-106826010D01*
X91990800Y-111137200D02*
X91990800Y-107840400D01*
G04 #@! TO.N,IO1*
X91490800Y-111137200D02*
X91490800Y-110265787D01*
X91490800Y-109880400D02*
X88436410Y-106826010D01*
X91490800Y-111137200D02*
X91490800Y-109880400D01*
G04 #@! TO.N,IO3*
X90965801Y-110377199D02*
X89777103Y-109188501D01*
X90990800Y-111137200D02*
X90965801Y-111112201D01*
X90965801Y-111112201D02*
X90965801Y-110377199D01*
X86773001Y-107702601D02*
X85896410Y-106826010D01*
X88306201Y-107702601D02*
X86773001Y-107702601D01*
X90990800Y-110387200D02*
X88306201Y-107702601D01*
X90990800Y-111137200D02*
X90990800Y-110387200D01*
G04 #@! TO.N,DTR*
X87667600Y-111137200D02*
X83356410Y-106826010D01*
X89990800Y-111137200D02*
X87667600Y-111137200D01*
G04 #@! TD*
D27*
G04 #@! TO.N,GND*
G36*
X81898424Y-107007912D02*
X82170499Y-107415101D01*
X82577688Y-107687176D01*
X82936761Y-107758600D01*
X83179239Y-107758600D01*
X83508012Y-107693203D01*
X87274563Y-111459755D01*
X87302794Y-111502006D01*
X87470169Y-111613841D01*
X87617765Y-111643200D01*
X87667599Y-111653113D01*
X87717433Y-111643200D01*
X88312202Y-111643200D01*
X88281906Y-111688541D01*
X88252336Y-111837200D01*
X88252336Y-112137200D01*
X88272227Y-112237200D01*
X88252336Y-112337200D01*
X88252336Y-112637200D01*
X88281906Y-112785859D01*
X88366114Y-112911886D01*
X88469850Y-112981200D01*
X88371582Y-112981200D01*
X87894628Y-112504247D01*
X87866396Y-112461994D01*
X87699021Y-112350159D01*
X87551425Y-112320800D01*
X87551424Y-112320800D01*
X87501590Y-112310887D01*
X87451756Y-112320800D01*
X86689638Y-112320800D01*
X86639804Y-112310887D01*
X86589970Y-112320800D01*
X86442374Y-112350159D01*
X86274999Y-112461994D01*
X86246768Y-112504245D01*
X83865913Y-114885101D01*
X83782964Y-114885101D01*
X83782964Y-114834083D01*
X83788200Y-114821442D01*
X83788200Y-114510740D01*
X83782964Y-114498099D01*
X83782964Y-114466100D01*
X83753394Y-114317441D01*
X83669186Y-114191414D01*
X83572262Y-114126652D01*
X83449601Y-114003991D01*
X83162551Y-113885091D01*
X82851849Y-113885091D01*
X82765040Y-113921049D01*
X82708552Y-113864561D01*
X83350044Y-113860872D01*
X83585342Y-113885430D01*
X83921319Y-113785643D01*
X84193535Y-113564879D01*
X84360548Y-113256747D01*
X84396930Y-112908158D01*
X84297143Y-112572180D01*
X84207356Y-112461467D01*
X84177186Y-112416314D01*
X84163110Y-112406909D01*
X84076379Y-112299964D01*
X83846023Y-112175108D01*
X83844904Y-112174761D01*
X83803371Y-112147354D01*
X83678823Y-112123324D01*
X83642158Y-112111968D01*
X83593818Y-112106923D01*
X83546099Y-112097716D01*
X83507716Y-112097937D01*
X83381558Y-112084770D01*
X83333860Y-112098937D01*
X81833287Y-112107566D01*
X81805659Y-112089106D01*
X81657071Y-112059550D01*
X81557917Y-111960396D01*
X81508765Y-111886835D01*
X81217349Y-111692117D01*
X80960367Y-111641000D01*
X80960363Y-111641000D01*
X80873600Y-111623742D01*
X80786837Y-111641000D01*
X78246833Y-111641000D01*
X77989851Y-111692117D01*
X77766209Y-111841550D01*
X77735824Y-111768194D01*
X77544256Y-111576626D01*
X77293959Y-111472950D01*
X77023041Y-111472950D01*
X76772744Y-111576626D01*
X76581176Y-111768194D01*
X76477500Y-112018491D01*
X76477500Y-112289409D01*
X76581176Y-112539706D01*
X76772744Y-112731274D01*
X77023041Y-112834950D01*
X77270036Y-112834950D01*
X77270036Y-113053950D01*
X77294900Y-113178950D01*
X77270036Y-113303950D01*
X77270036Y-113703950D01*
X77294900Y-113828950D01*
X77270036Y-113953950D01*
X77270036Y-114353950D01*
X77294900Y-114478950D01*
X77270036Y-114603950D01*
X77270036Y-115003950D01*
X77299606Y-115152609D01*
X77383814Y-115278636D01*
X77509841Y-115362844D01*
X77658500Y-115392414D01*
X79158500Y-115392414D01*
X79307159Y-115362844D01*
X79433186Y-115278636D01*
X79517394Y-115152609D01*
X79526101Y-115108838D01*
X79540846Y-115130906D01*
X79627104Y-115188541D01*
X79708220Y-115242741D01*
X79905652Y-115282013D01*
X79955487Y-115272100D01*
X80813420Y-115272100D01*
X80859314Y-115340786D01*
X80985341Y-115424994D01*
X81134000Y-115454564D01*
X81606872Y-115454564D01*
X81865964Y-115713656D01*
X81894195Y-115755907D01*
X82061570Y-115867742D01*
X82209166Y-115897101D01*
X82209167Y-115897101D01*
X82259001Y-115907014D01*
X82308835Y-115897101D01*
X84025670Y-115897101D01*
X84075504Y-115907014D01*
X84125338Y-115897101D01*
X84125339Y-115897101D01*
X84272935Y-115867742D01*
X84440310Y-115755907D01*
X84468543Y-115713653D01*
X86369424Y-113812773D01*
X86459900Y-114031201D01*
X86679599Y-114250900D01*
X86966649Y-114369800D01*
X87181431Y-114369800D01*
X87324568Y-114465440D01*
X87472164Y-114494799D01*
X87521998Y-114504712D01*
X87545800Y-114499977D01*
X87569601Y-114504712D01*
X87619435Y-114494799D01*
X87619436Y-114494799D01*
X87627475Y-114493200D01*
X88252336Y-114493200D01*
X88252336Y-114629742D01*
X87329479Y-115552600D01*
X85938767Y-115552600D01*
X85852000Y-115535341D01*
X85765233Y-115552600D01*
X85508251Y-115603717D01*
X85462811Y-115634079D01*
X85363379Y-115653857D01*
X85166385Y-115785485D01*
X85034757Y-115982479D01*
X84988536Y-116214850D01*
X84988536Y-116258674D01*
X84953741Y-116433600D01*
X84971000Y-116520367D01*
X84971001Y-119953629D01*
X84971000Y-119953634D01*
X84971000Y-120373900D01*
X82921986Y-120373900D01*
X82519161Y-120454027D01*
X82062355Y-120759255D01*
X81757127Y-121216061D01*
X81740649Y-121298900D01*
X73354000Y-121298900D01*
X73354000Y-116018491D01*
X76477500Y-116018491D01*
X76477500Y-116289409D01*
X76581176Y-116539706D01*
X76772744Y-116731274D01*
X77023041Y-116834950D01*
X77293959Y-116834950D01*
X77544256Y-116731274D01*
X77735824Y-116539706D01*
X77839500Y-116289409D01*
X77839500Y-116018491D01*
X77735824Y-115768194D01*
X77544256Y-115576626D01*
X77293959Y-115472950D01*
X77023041Y-115472950D01*
X76772744Y-115576626D01*
X76581176Y-115768194D01*
X76477500Y-116018491D01*
X73354000Y-116018491D01*
X73354000Y-110487049D01*
X80651400Y-110487049D01*
X80651400Y-110797751D01*
X80768536Y-111080542D01*
X80768536Y-111199000D01*
X80798106Y-111347659D01*
X80882314Y-111473686D01*
X81008341Y-111557894D01*
X81157000Y-111587464D01*
X81657000Y-111587464D01*
X81805659Y-111557894D01*
X81931686Y-111473686D01*
X82015894Y-111347659D01*
X82045464Y-111199000D01*
X82045464Y-111133837D01*
X82094500Y-111084801D01*
X82213400Y-110797751D01*
X82213400Y-110487049D01*
X82094500Y-110199999D01*
X82045464Y-110150963D01*
X82045464Y-110124000D01*
X82015894Y-109975341D01*
X81931686Y-109849314D01*
X81805659Y-109765106D01*
X81657000Y-109735536D01*
X81157000Y-109735536D01*
X81008341Y-109765106D01*
X80882314Y-109849314D01*
X80798106Y-109975341D01*
X80768536Y-110124000D01*
X80768536Y-110204258D01*
X80651400Y-110487049D01*
X73354000Y-110487049D01*
X73354000Y-106983600D01*
X81893588Y-106983600D01*
X81898424Y-107007912D01*
X81898424Y-107007912D01*
G37*
X81898424Y-107007912D02*
X82170499Y-107415101D01*
X82577688Y-107687176D01*
X82936761Y-107758600D01*
X83179239Y-107758600D01*
X83508012Y-107693203D01*
X87274563Y-111459755D01*
X87302794Y-111502006D01*
X87470169Y-111613841D01*
X87617765Y-111643200D01*
X87667599Y-111653113D01*
X87717433Y-111643200D01*
X88312202Y-111643200D01*
X88281906Y-111688541D01*
X88252336Y-111837200D01*
X88252336Y-112137200D01*
X88272227Y-112237200D01*
X88252336Y-112337200D01*
X88252336Y-112637200D01*
X88281906Y-112785859D01*
X88366114Y-112911886D01*
X88469850Y-112981200D01*
X88371582Y-112981200D01*
X87894628Y-112504247D01*
X87866396Y-112461994D01*
X87699021Y-112350159D01*
X87551425Y-112320800D01*
X87551424Y-112320800D01*
X87501590Y-112310887D01*
X87451756Y-112320800D01*
X86689638Y-112320800D01*
X86639804Y-112310887D01*
X86589970Y-112320800D01*
X86442374Y-112350159D01*
X86274999Y-112461994D01*
X86246768Y-112504245D01*
X83865913Y-114885101D01*
X83782964Y-114885101D01*
X83782964Y-114834083D01*
X83788200Y-114821442D01*
X83788200Y-114510740D01*
X83782964Y-114498099D01*
X83782964Y-114466100D01*
X83753394Y-114317441D01*
X83669186Y-114191414D01*
X83572262Y-114126652D01*
X83449601Y-114003991D01*
X83162551Y-113885091D01*
X82851849Y-113885091D01*
X82765040Y-113921049D01*
X82708552Y-113864561D01*
X83350044Y-113860872D01*
X83585342Y-113885430D01*
X83921319Y-113785643D01*
X84193535Y-113564879D01*
X84360548Y-113256747D01*
X84396930Y-112908158D01*
X84297143Y-112572180D01*
X84207356Y-112461467D01*
X84177186Y-112416314D01*
X84163110Y-112406909D01*
X84076379Y-112299964D01*
X83846023Y-112175108D01*
X83844904Y-112174761D01*
X83803371Y-112147354D01*
X83678823Y-112123324D01*
X83642158Y-112111968D01*
X83593818Y-112106923D01*
X83546099Y-112097716D01*
X83507716Y-112097937D01*
X83381558Y-112084770D01*
X83333860Y-112098937D01*
X81833287Y-112107566D01*
X81805659Y-112089106D01*
X81657071Y-112059550D01*
X81557917Y-111960396D01*
X81508765Y-111886835D01*
X81217349Y-111692117D01*
X80960367Y-111641000D01*
X80960363Y-111641000D01*
X80873600Y-111623742D01*
X80786837Y-111641000D01*
X78246833Y-111641000D01*
X77989851Y-111692117D01*
X77766209Y-111841550D01*
X77735824Y-111768194D01*
X77544256Y-111576626D01*
X77293959Y-111472950D01*
X77023041Y-111472950D01*
X76772744Y-111576626D01*
X76581176Y-111768194D01*
X76477500Y-112018491D01*
X76477500Y-112289409D01*
X76581176Y-112539706D01*
X76772744Y-112731274D01*
X77023041Y-112834950D01*
X77270036Y-112834950D01*
X77270036Y-113053950D01*
X77294900Y-113178950D01*
X77270036Y-113303950D01*
X77270036Y-113703950D01*
X77294900Y-113828950D01*
X77270036Y-113953950D01*
X77270036Y-114353950D01*
X77294900Y-114478950D01*
X77270036Y-114603950D01*
X77270036Y-115003950D01*
X77299606Y-115152609D01*
X77383814Y-115278636D01*
X77509841Y-115362844D01*
X77658500Y-115392414D01*
X79158500Y-115392414D01*
X79307159Y-115362844D01*
X79433186Y-115278636D01*
X79517394Y-115152609D01*
X79526101Y-115108838D01*
X79540846Y-115130906D01*
X79627104Y-115188541D01*
X79708220Y-115242741D01*
X79905652Y-115282013D01*
X79955487Y-115272100D01*
X80813420Y-115272100D01*
X80859314Y-115340786D01*
X80985341Y-115424994D01*
X81134000Y-115454564D01*
X81606872Y-115454564D01*
X81865964Y-115713656D01*
X81894195Y-115755907D01*
X82061570Y-115867742D01*
X82209166Y-115897101D01*
X82209167Y-115897101D01*
X82259001Y-115907014D01*
X82308835Y-115897101D01*
X84025670Y-115897101D01*
X84075504Y-115907014D01*
X84125338Y-115897101D01*
X84125339Y-115897101D01*
X84272935Y-115867742D01*
X84440310Y-115755907D01*
X84468543Y-115713653D01*
X86369424Y-113812773D01*
X86459900Y-114031201D01*
X86679599Y-114250900D01*
X86966649Y-114369800D01*
X87181431Y-114369800D01*
X87324568Y-114465440D01*
X87472164Y-114494799D01*
X87521998Y-114504712D01*
X87545800Y-114499977D01*
X87569601Y-114504712D01*
X87619435Y-114494799D01*
X87619436Y-114494799D01*
X87627475Y-114493200D01*
X88252336Y-114493200D01*
X88252336Y-114629742D01*
X87329479Y-115552600D01*
X85938767Y-115552600D01*
X85852000Y-115535341D01*
X85765233Y-115552600D01*
X85508251Y-115603717D01*
X85462811Y-115634079D01*
X85363379Y-115653857D01*
X85166385Y-115785485D01*
X85034757Y-115982479D01*
X84988536Y-116214850D01*
X84988536Y-116258674D01*
X84953741Y-116433600D01*
X84971000Y-116520367D01*
X84971001Y-119953629D01*
X84971000Y-119953634D01*
X84971000Y-120373900D01*
X82921986Y-120373900D01*
X82519161Y-120454027D01*
X82062355Y-120759255D01*
X81757127Y-121216061D01*
X81740649Y-121298900D01*
X73354000Y-121298900D01*
X73354000Y-116018491D01*
X76477500Y-116018491D01*
X76477500Y-116289409D01*
X76581176Y-116539706D01*
X76772744Y-116731274D01*
X77023041Y-116834950D01*
X77293959Y-116834950D01*
X77544256Y-116731274D01*
X77735824Y-116539706D01*
X77839500Y-116289409D01*
X77839500Y-116018491D01*
X77735824Y-115768194D01*
X77544256Y-115576626D01*
X77293959Y-115472950D01*
X77023041Y-115472950D01*
X76772744Y-115576626D01*
X76581176Y-115768194D01*
X76477500Y-116018491D01*
X73354000Y-116018491D01*
X73354000Y-110487049D01*
X80651400Y-110487049D01*
X80651400Y-110797751D01*
X80768536Y-111080542D01*
X80768536Y-111199000D01*
X80798106Y-111347659D01*
X80882314Y-111473686D01*
X81008341Y-111557894D01*
X81157000Y-111587464D01*
X81657000Y-111587464D01*
X81805659Y-111557894D01*
X81931686Y-111473686D01*
X82015894Y-111347659D01*
X82045464Y-111199000D01*
X82045464Y-111133837D01*
X82094500Y-111084801D01*
X82213400Y-110797751D01*
X82213400Y-110487049D01*
X82094500Y-110199999D01*
X82045464Y-110150963D01*
X82045464Y-110124000D01*
X82015894Y-109975341D01*
X81931686Y-109849314D01*
X81805659Y-109765106D01*
X81657000Y-109735536D01*
X81157000Y-109735536D01*
X81008341Y-109765106D01*
X80882314Y-109849314D01*
X80798106Y-109975341D01*
X80768536Y-110124000D01*
X80768536Y-110204258D01*
X80651400Y-110487049D01*
X73354000Y-110487049D01*
X73354000Y-106983600D01*
X81893588Y-106983600D01*
X81898424Y-107007912D01*
G36*
X90527753Y-117339745D02*
X90555984Y-117381996D01*
X90668449Y-117457142D01*
X90723358Y-117493831D01*
X90920790Y-117533103D01*
X90970625Y-117523190D01*
X92093499Y-117523190D01*
X92202136Y-117631827D01*
X92202136Y-117998450D01*
X92248357Y-118230821D01*
X92379985Y-118427815D01*
X92576979Y-118559443D01*
X92615976Y-118567200D01*
X92576979Y-118574957D01*
X92379985Y-118706585D01*
X92303600Y-118820903D01*
X92227215Y-118706585D01*
X92030221Y-118574957D01*
X91797850Y-118528736D01*
X91431228Y-118528736D01*
X90496800Y-117594309D01*
X90496800Y-117308792D01*
X90527753Y-117339745D01*
X90527753Y-117339745D01*
G37*
X90527753Y-117339745D02*
X90555984Y-117381996D01*
X90668449Y-117457142D01*
X90723358Y-117493831D01*
X90920790Y-117533103D01*
X90970625Y-117523190D01*
X92093499Y-117523190D01*
X92202136Y-117631827D01*
X92202136Y-117998450D01*
X92248357Y-118230821D01*
X92379985Y-118427815D01*
X92576979Y-118559443D01*
X92615976Y-118567200D01*
X92576979Y-118574957D01*
X92379985Y-118706585D01*
X92303600Y-118820903D01*
X92227215Y-118706585D01*
X92030221Y-118574957D01*
X91797850Y-118528736D01*
X91431228Y-118528736D01*
X90496800Y-117594309D01*
X90496800Y-117308792D01*
X90527753Y-117339745D01*
G36*
X92840800Y-112025664D02*
X92952336Y-112025664D01*
X92952336Y-112137200D01*
X92972227Y-112237200D01*
X92952336Y-112337200D01*
X92952336Y-112637200D01*
X92972227Y-112737200D01*
X92952336Y-112837200D01*
X92952336Y-113137200D01*
X92972227Y-113237200D01*
X92952336Y-113337200D01*
X92952336Y-113637200D01*
X92972227Y-113737200D01*
X92952336Y-113837200D01*
X92952336Y-114137200D01*
X92972227Y-114237200D01*
X92952336Y-114337200D01*
X92952336Y-114637200D01*
X92972227Y-114737200D01*
X92952336Y-114837200D01*
X92952336Y-114948736D01*
X92840800Y-114948736D01*
X92740800Y-114968627D01*
X92640800Y-114948736D01*
X92340800Y-114948736D01*
X92240800Y-114968627D01*
X92140800Y-114948736D01*
X91840800Y-114948736D01*
X91740800Y-114968627D01*
X91640800Y-114948736D01*
X91340800Y-114948736D01*
X91240800Y-114968627D01*
X91140800Y-114948736D01*
X90840800Y-114948736D01*
X90740800Y-114968627D01*
X90640800Y-114948736D01*
X90340800Y-114948736D01*
X90240800Y-114968627D01*
X90140800Y-114948736D01*
X90029264Y-114948736D01*
X90029264Y-114837200D01*
X90009373Y-114737200D01*
X90029264Y-114637200D01*
X90029264Y-114337200D01*
X90009373Y-114237200D01*
X90029264Y-114137200D01*
X90029264Y-113837200D01*
X90009373Y-113737200D01*
X90029264Y-113637200D01*
X90029264Y-113337200D01*
X89999694Y-113188541D01*
X89915486Y-113062514D01*
X89802770Y-112987200D01*
X89915486Y-112911886D01*
X89999694Y-112785859D01*
X90029264Y-112637200D01*
X90029264Y-112337200D01*
X90009373Y-112237200D01*
X90029264Y-112137200D01*
X90029264Y-112025664D01*
X90140800Y-112025664D01*
X90240800Y-112005773D01*
X90340800Y-112025664D01*
X90640800Y-112025664D01*
X90740800Y-112005773D01*
X90840800Y-112025664D01*
X91140800Y-112025664D01*
X91240800Y-112005773D01*
X91340800Y-112025664D01*
X91640800Y-112025664D01*
X91740800Y-112005773D01*
X91840800Y-112025664D01*
X92140800Y-112025664D01*
X92240800Y-112005773D01*
X92340800Y-112025664D01*
X92640800Y-112025664D01*
X92740800Y-112005773D01*
X92840800Y-112025664D01*
X92840800Y-112025664D01*
G37*
X92840800Y-112025664D02*
X92952336Y-112025664D01*
X92952336Y-112137200D01*
X92972227Y-112237200D01*
X92952336Y-112337200D01*
X92952336Y-112637200D01*
X92972227Y-112737200D01*
X92952336Y-112837200D01*
X92952336Y-113137200D01*
X92972227Y-113237200D01*
X92952336Y-113337200D01*
X92952336Y-113637200D01*
X92972227Y-113737200D01*
X92952336Y-113837200D01*
X92952336Y-114137200D01*
X92972227Y-114237200D01*
X92952336Y-114337200D01*
X92952336Y-114637200D01*
X92972227Y-114737200D01*
X92952336Y-114837200D01*
X92952336Y-114948736D01*
X92840800Y-114948736D01*
X92740800Y-114968627D01*
X92640800Y-114948736D01*
X92340800Y-114948736D01*
X92240800Y-114968627D01*
X92140800Y-114948736D01*
X91840800Y-114948736D01*
X91740800Y-114968627D01*
X91640800Y-114948736D01*
X91340800Y-114948736D01*
X91240800Y-114968627D01*
X91140800Y-114948736D01*
X90840800Y-114948736D01*
X90740800Y-114968627D01*
X90640800Y-114948736D01*
X90340800Y-114948736D01*
X90240800Y-114968627D01*
X90140800Y-114948736D01*
X90029264Y-114948736D01*
X90029264Y-114837200D01*
X90009373Y-114737200D01*
X90029264Y-114637200D01*
X90029264Y-114337200D01*
X90009373Y-114237200D01*
X90029264Y-114137200D01*
X90029264Y-113837200D01*
X90009373Y-113737200D01*
X90029264Y-113637200D01*
X90029264Y-113337200D01*
X89999694Y-113188541D01*
X89915486Y-113062514D01*
X89802770Y-112987200D01*
X89915486Y-112911886D01*
X89999694Y-112785859D01*
X90029264Y-112637200D01*
X90029264Y-112337200D01*
X90009373Y-112237200D01*
X90029264Y-112137200D01*
X90029264Y-112025664D01*
X90140800Y-112025664D01*
X90240800Y-112005773D01*
X90340800Y-112025664D01*
X90640800Y-112025664D01*
X90740800Y-112005773D01*
X90840800Y-112025664D01*
X91140800Y-112025664D01*
X91240800Y-112005773D01*
X91340800Y-112025664D01*
X91640800Y-112025664D01*
X91740800Y-112005773D01*
X91840800Y-112025664D01*
X92140800Y-112025664D01*
X92240800Y-112005773D01*
X92340800Y-112025664D01*
X92640800Y-112025664D01*
X92740800Y-112005773D01*
X92840800Y-112025664D01*
G04 #@! TD*
M02*
