G04 #@! TF.GenerationSoftware,KiCad,Pcbnew,(5.0.2)-1*
G04 #@! TF.CreationDate,2019-10-04T12:42:43+03:00*
G04 #@! TF.ProjectId,Micro-USB-UART,4d696372-6f2d-4555-9342-2d554152542e,rev?*
G04 #@! TF.SameCoordinates,Original*
G04 #@! TF.FileFunction,Soldermask,Bot*
G04 #@! TF.FilePolarity,Negative*
%FSLAX46Y46*%
G04 Gerber Fmt 4.6, Leading zero omitted, Abs format (unit mm)*
G04 Created by KiCad (PCBNEW (5.0.2)-1) date 04.10.2019 12:42:43*
%MOMM*%
%LPD*%
G01*
G04 APERTURE LIST*
%ADD10C,0.100000*%
G04 APERTURE END LIST*
D10*
G36*
X76339000Y-122655900D02*
X74537000Y-122655900D01*
X74537000Y-120853900D01*
X76339000Y-120853900D01*
X76339000Y-122655900D01*
X76339000Y-122655900D01*
G37*
G36*
X78088442Y-120860418D02*
X78154627Y-120866937D01*
X78267853Y-120901284D01*
X78324467Y-120918457D01*
X78463087Y-120992552D01*
X78480991Y-121002122D01*
X78516729Y-121031452D01*
X78618186Y-121114714D01*
X78701448Y-121216171D01*
X78730778Y-121251909D01*
X78730779Y-121251911D01*
X78814443Y-121408433D01*
X78814443Y-121408434D01*
X78865963Y-121578273D01*
X78883359Y-121754900D01*
X78865963Y-121931527D01*
X78831616Y-122044753D01*
X78814443Y-122101367D01*
X78740348Y-122239987D01*
X78730778Y-122257891D01*
X78701448Y-122293629D01*
X78618186Y-122395086D01*
X78516729Y-122478348D01*
X78480991Y-122507678D01*
X78480989Y-122507679D01*
X78324467Y-122591343D01*
X78267853Y-122608516D01*
X78154627Y-122642863D01*
X78088442Y-122649382D01*
X78022260Y-122655900D01*
X77933740Y-122655900D01*
X77867558Y-122649382D01*
X77801373Y-122642863D01*
X77688147Y-122608516D01*
X77631533Y-122591343D01*
X77475011Y-122507679D01*
X77475009Y-122507678D01*
X77439271Y-122478348D01*
X77337814Y-122395086D01*
X77254552Y-122293629D01*
X77225222Y-122257891D01*
X77215652Y-122239987D01*
X77141557Y-122101367D01*
X77124384Y-122044753D01*
X77090037Y-121931527D01*
X77072641Y-121754900D01*
X77090037Y-121578273D01*
X77141557Y-121408434D01*
X77141557Y-121408433D01*
X77225221Y-121251911D01*
X77225222Y-121251909D01*
X77254552Y-121216171D01*
X77337814Y-121114714D01*
X77439271Y-121031452D01*
X77475009Y-121002122D01*
X77492913Y-120992552D01*
X77631533Y-120918457D01*
X77688147Y-120901284D01*
X77801373Y-120866937D01*
X77867558Y-120860418D01*
X77933740Y-120853900D01*
X78022260Y-120853900D01*
X78088442Y-120860418D01*
X78088442Y-120860418D01*
G37*
G36*
X80628442Y-120860418D02*
X80694627Y-120866937D01*
X80807853Y-120901284D01*
X80864467Y-120918457D01*
X81003087Y-120992552D01*
X81020991Y-121002122D01*
X81056729Y-121031452D01*
X81158186Y-121114714D01*
X81241448Y-121216171D01*
X81270778Y-121251909D01*
X81270779Y-121251911D01*
X81354443Y-121408433D01*
X81354443Y-121408434D01*
X81405963Y-121578273D01*
X81423359Y-121754900D01*
X81405963Y-121931527D01*
X81371616Y-122044753D01*
X81354443Y-122101367D01*
X81280348Y-122239987D01*
X81270778Y-122257891D01*
X81241448Y-122293629D01*
X81158186Y-122395086D01*
X81056729Y-122478348D01*
X81020991Y-122507678D01*
X81020989Y-122507679D01*
X80864467Y-122591343D01*
X80807853Y-122608516D01*
X80694627Y-122642863D01*
X80628442Y-122649382D01*
X80562260Y-122655900D01*
X80473740Y-122655900D01*
X80407558Y-122649382D01*
X80341373Y-122642863D01*
X80228147Y-122608516D01*
X80171533Y-122591343D01*
X80015011Y-122507679D01*
X80015009Y-122507678D01*
X79979271Y-122478348D01*
X79877814Y-122395086D01*
X79794552Y-122293629D01*
X79765222Y-122257891D01*
X79755652Y-122239987D01*
X79681557Y-122101367D01*
X79664384Y-122044753D01*
X79630037Y-121931527D01*
X79612641Y-121754900D01*
X79630037Y-121578273D01*
X79681557Y-121408434D01*
X79681557Y-121408433D01*
X79765221Y-121251911D01*
X79765222Y-121251909D01*
X79794552Y-121216171D01*
X79877814Y-121114714D01*
X79979271Y-121031452D01*
X80015009Y-121002122D01*
X80032913Y-120992552D01*
X80171533Y-120918457D01*
X80228147Y-120901284D01*
X80341373Y-120866937D01*
X80407558Y-120860418D01*
X80473740Y-120853900D01*
X80562260Y-120853900D01*
X80628442Y-120860418D01*
X80628442Y-120860418D01*
G37*
G36*
X83168442Y-120860418D02*
X83234627Y-120866937D01*
X83347853Y-120901284D01*
X83404467Y-120918457D01*
X83543087Y-120992552D01*
X83560991Y-121002122D01*
X83596729Y-121031452D01*
X83698186Y-121114714D01*
X83781448Y-121216171D01*
X83810778Y-121251909D01*
X83810779Y-121251911D01*
X83894443Y-121408433D01*
X83894443Y-121408434D01*
X83945963Y-121578273D01*
X83963359Y-121754900D01*
X83945963Y-121931527D01*
X83911616Y-122044753D01*
X83894443Y-122101367D01*
X83820348Y-122239987D01*
X83810778Y-122257891D01*
X83781448Y-122293629D01*
X83698186Y-122395086D01*
X83596729Y-122478348D01*
X83560991Y-122507678D01*
X83560989Y-122507679D01*
X83404467Y-122591343D01*
X83347853Y-122608516D01*
X83234627Y-122642863D01*
X83168442Y-122649382D01*
X83102260Y-122655900D01*
X83013740Y-122655900D01*
X82947558Y-122649382D01*
X82881373Y-122642863D01*
X82768147Y-122608516D01*
X82711533Y-122591343D01*
X82555011Y-122507679D01*
X82555009Y-122507678D01*
X82519271Y-122478348D01*
X82417814Y-122395086D01*
X82334552Y-122293629D01*
X82305222Y-122257891D01*
X82295652Y-122239987D01*
X82221557Y-122101367D01*
X82204384Y-122044753D01*
X82170037Y-121931527D01*
X82152641Y-121754900D01*
X82170037Y-121578273D01*
X82221557Y-121408434D01*
X82221557Y-121408433D01*
X82305221Y-121251911D01*
X82305222Y-121251909D01*
X82334552Y-121216171D01*
X82417814Y-121114714D01*
X82519271Y-121031452D01*
X82555009Y-121002122D01*
X82572913Y-120992552D01*
X82711533Y-120918457D01*
X82768147Y-120901284D01*
X82881373Y-120866937D01*
X82947558Y-120860418D01*
X83013740Y-120853900D01*
X83102260Y-120853900D01*
X83168442Y-120860418D01*
X83168442Y-120860418D01*
G37*
G36*
X85708442Y-120860418D02*
X85774627Y-120866937D01*
X85887853Y-120901284D01*
X85944467Y-120918457D01*
X86083087Y-120992552D01*
X86100991Y-121002122D01*
X86136729Y-121031452D01*
X86238186Y-121114714D01*
X86321448Y-121216171D01*
X86350778Y-121251909D01*
X86350779Y-121251911D01*
X86434443Y-121408433D01*
X86434443Y-121408434D01*
X86485963Y-121578273D01*
X86503359Y-121754900D01*
X86485963Y-121931527D01*
X86451616Y-122044753D01*
X86434443Y-122101367D01*
X86360348Y-122239987D01*
X86350778Y-122257891D01*
X86321448Y-122293629D01*
X86238186Y-122395086D01*
X86136729Y-122478348D01*
X86100991Y-122507678D01*
X86100989Y-122507679D01*
X85944467Y-122591343D01*
X85887853Y-122608516D01*
X85774627Y-122642863D01*
X85708442Y-122649382D01*
X85642260Y-122655900D01*
X85553740Y-122655900D01*
X85487558Y-122649382D01*
X85421373Y-122642863D01*
X85308147Y-122608516D01*
X85251533Y-122591343D01*
X85095011Y-122507679D01*
X85095009Y-122507678D01*
X85059271Y-122478348D01*
X84957814Y-122395086D01*
X84874552Y-122293629D01*
X84845222Y-122257891D01*
X84835652Y-122239987D01*
X84761557Y-122101367D01*
X84744384Y-122044753D01*
X84710037Y-121931527D01*
X84692641Y-121754900D01*
X84710037Y-121578273D01*
X84761557Y-121408434D01*
X84761557Y-121408433D01*
X84845221Y-121251911D01*
X84845222Y-121251909D01*
X84874552Y-121216171D01*
X84957814Y-121114714D01*
X85059271Y-121031452D01*
X85095009Y-121002122D01*
X85112913Y-120992552D01*
X85251533Y-120918457D01*
X85308147Y-120901284D01*
X85421373Y-120866937D01*
X85487558Y-120860418D01*
X85553740Y-120853900D01*
X85642260Y-120853900D01*
X85708442Y-120860418D01*
X85708442Y-120860418D01*
G37*
G36*
X88248442Y-120860418D02*
X88314627Y-120866937D01*
X88427853Y-120901284D01*
X88484467Y-120918457D01*
X88623087Y-120992552D01*
X88640991Y-121002122D01*
X88676729Y-121031452D01*
X88778186Y-121114714D01*
X88861448Y-121216171D01*
X88890778Y-121251909D01*
X88890779Y-121251911D01*
X88974443Y-121408433D01*
X88974443Y-121408434D01*
X89025963Y-121578273D01*
X89043359Y-121754900D01*
X89025963Y-121931527D01*
X88991616Y-122044753D01*
X88974443Y-122101367D01*
X88900348Y-122239987D01*
X88890778Y-122257891D01*
X88861448Y-122293629D01*
X88778186Y-122395086D01*
X88676729Y-122478348D01*
X88640991Y-122507678D01*
X88640989Y-122507679D01*
X88484467Y-122591343D01*
X88427853Y-122608516D01*
X88314627Y-122642863D01*
X88248442Y-122649382D01*
X88182260Y-122655900D01*
X88093740Y-122655900D01*
X88027558Y-122649382D01*
X87961373Y-122642863D01*
X87848147Y-122608516D01*
X87791533Y-122591343D01*
X87635011Y-122507679D01*
X87635009Y-122507678D01*
X87599271Y-122478348D01*
X87497814Y-122395086D01*
X87414552Y-122293629D01*
X87385222Y-122257891D01*
X87375652Y-122239987D01*
X87301557Y-122101367D01*
X87284384Y-122044753D01*
X87250037Y-121931527D01*
X87232641Y-121754900D01*
X87250037Y-121578273D01*
X87301557Y-121408434D01*
X87301557Y-121408433D01*
X87385221Y-121251911D01*
X87385222Y-121251909D01*
X87414552Y-121216171D01*
X87497814Y-121114714D01*
X87599271Y-121031452D01*
X87635009Y-121002122D01*
X87652913Y-120992552D01*
X87791533Y-120918457D01*
X87848147Y-120901284D01*
X87961373Y-120866937D01*
X88027558Y-120860418D01*
X88093740Y-120853900D01*
X88182260Y-120853900D01*
X88248442Y-120860418D01*
X88248442Y-120860418D01*
G37*
G36*
X90788442Y-120860418D02*
X90854627Y-120866937D01*
X90967853Y-120901284D01*
X91024467Y-120918457D01*
X91163087Y-120992552D01*
X91180991Y-121002122D01*
X91216729Y-121031452D01*
X91318186Y-121114714D01*
X91401448Y-121216171D01*
X91430778Y-121251909D01*
X91430779Y-121251911D01*
X91514443Y-121408433D01*
X91514443Y-121408434D01*
X91565963Y-121578273D01*
X91583359Y-121754900D01*
X91565963Y-121931527D01*
X91531616Y-122044753D01*
X91514443Y-122101367D01*
X91440348Y-122239987D01*
X91430778Y-122257891D01*
X91401448Y-122293629D01*
X91318186Y-122395086D01*
X91216729Y-122478348D01*
X91180991Y-122507678D01*
X91180989Y-122507679D01*
X91024467Y-122591343D01*
X90967853Y-122608516D01*
X90854627Y-122642863D01*
X90788442Y-122649382D01*
X90722260Y-122655900D01*
X90633740Y-122655900D01*
X90567558Y-122649382D01*
X90501373Y-122642863D01*
X90388147Y-122608516D01*
X90331533Y-122591343D01*
X90175011Y-122507679D01*
X90175009Y-122507678D01*
X90139271Y-122478348D01*
X90037814Y-122395086D01*
X89954552Y-122293629D01*
X89925222Y-122257891D01*
X89915652Y-122239987D01*
X89841557Y-122101367D01*
X89824384Y-122044753D01*
X89790037Y-121931527D01*
X89772641Y-121754900D01*
X89790037Y-121578273D01*
X89841557Y-121408434D01*
X89841557Y-121408433D01*
X89925221Y-121251911D01*
X89925222Y-121251909D01*
X89954552Y-121216171D01*
X90037814Y-121114714D01*
X90139271Y-121031452D01*
X90175009Y-121002122D01*
X90192913Y-120992552D01*
X90331533Y-120918457D01*
X90388147Y-120901284D01*
X90501373Y-120866937D01*
X90567558Y-120860418D01*
X90633740Y-120853900D01*
X90722260Y-120853900D01*
X90788442Y-120860418D01*
X90788442Y-120860418D01*
G37*
G36*
X95868442Y-120860418D02*
X95934627Y-120866937D01*
X96047853Y-120901284D01*
X96104467Y-120918457D01*
X96243087Y-120992552D01*
X96260991Y-121002122D01*
X96296729Y-121031452D01*
X96398186Y-121114714D01*
X96481448Y-121216171D01*
X96510778Y-121251909D01*
X96510779Y-121251911D01*
X96594443Y-121408433D01*
X96594443Y-121408434D01*
X96645963Y-121578273D01*
X96663359Y-121754900D01*
X96645963Y-121931527D01*
X96611616Y-122044753D01*
X96594443Y-122101367D01*
X96520348Y-122239987D01*
X96510778Y-122257891D01*
X96481448Y-122293629D01*
X96398186Y-122395086D01*
X96296729Y-122478348D01*
X96260991Y-122507678D01*
X96260989Y-122507679D01*
X96104467Y-122591343D01*
X96047853Y-122608516D01*
X95934627Y-122642863D01*
X95868442Y-122649382D01*
X95802260Y-122655900D01*
X95713740Y-122655900D01*
X95647558Y-122649382D01*
X95581373Y-122642863D01*
X95468147Y-122608516D01*
X95411533Y-122591343D01*
X95255011Y-122507679D01*
X95255009Y-122507678D01*
X95219271Y-122478348D01*
X95117814Y-122395086D01*
X95034552Y-122293629D01*
X95005222Y-122257891D01*
X94995652Y-122239987D01*
X94921557Y-122101367D01*
X94904384Y-122044753D01*
X94870037Y-121931527D01*
X94852641Y-121754900D01*
X94870037Y-121578273D01*
X94921557Y-121408434D01*
X94921557Y-121408433D01*
X95005221Y-121251911D01*
X95005222Y-121251909D01*
X95034552Y-121216171D01*
X95117814Y-121114714D01*
X95219271Y-121031452D01*
X95255009Y-121002122D01*
X95272913Y-120992552D01*
X95411533Y-120918457D01*
X95468147Y-120901284D01*
X95581373Y-120866937D01*
X95647558Y-120860418D01*
X95713740Y-120853900D01*
X95802260Y-120853900D01*
X95868442Y-120860418D01*
X95868442Y-120860418D01*
G37*
G36*
X93328442Y-120860418D02*
X93394627Y-120866937D01*
X93507853Y-120901284D01*
X93564467Y-120918457D01*
X93703087Y-120992552D01*
X93720991Y-121002122D01*
X93756729Y-121031452D01*
X93858186Y-121114714D01*
X93941448Y-121216171D01*
X93970778Y-121251909D01*
X93970779Y-121251911D01*
X94054443Y-121408433D01*
X94054443Y-121408434D01*
X94105963Y-121578273D01*
X94123359Y-121754900D01*
X94105963Y-121931527D01*
X94071616Y-122044753D01*
X94054443Y-122101367D01*
X93980348Y-122239987D01*
X93970778Y-122257891D01*
X93941448Y-122293629D01*
X93858186Y-122395086D01*
X93756729Y-122478348D01*
X93720991Y-122507678D01*
X93720989Y-122507679D01*
X93564467Y-122591343D01*
X93507853Y-122608516D01*
X93394627Y-122642863D01*
X93328442Y-122649382D01*
X93262260Y-122655900D01*
X93173740Y-122655900D01*
X93107558Y-122649382D01*
X93041373Y-122642863D01*
X92928147Y-122608516D01*
X92871533Y-122591343D01*
X92715011Y-122507679D01*
X92715009Y-122507678D01*
X92679271Y-122478348D01*
X92577814Y-122395086D01*
X92494552Y-122293629D01*
X92465222Y-122257891D01*
X92455652Y-122239987D01*
X92381557Y-122101367D01*
X92364384Y-122044753D01*
X92330037Y-121931527D01*
X92312641Y-121754900D01*
X92330037Y-121578273D01*
X92381557Y-121408434D01*
X92381557Y-121408433D01*
X92465221Y-121251911D01*
X92465222Y-121251909D01*
X92494552Y-121216171D01*
X92577814Y-121114714D01*
X92679271Y-121031452D01*
X92715009Y-121002122D01*
X92732913Y-120992552D01*
X92871533Y-120918457D01*
X92928147Y-120901284D01*
X93041373Y-120866937D01*
X93107558Y-120860418D01*
X93173740Y-120853900D01*
X93262260Y-120853900D01*
X93328442Y-120860418D01*
X93328442Y-120860418D01*
G37*
G36*
X77260883Y-115816439D02*
X77324761Y-115842898D01*
X77382250Y-115881311D01*
X77431139Y-115930200D01*
X77469552Y-115987689D01*
X77496011Y-116051567D01*
X77509500Y-116119380D01*
X77509500Y-116188520D01*
X77496011Y-116256333D01*
X77469552Y-116320211D01*
X77431139Y-116377700D01*
X77382250Y-116426589D01*
X77324761Y-116465002D01*
X77260883Y-116491461D01*
X77193070Y-116504950D01*
X77123930Y-116504950D01*
X77056117Y-116491461D01*
X76992239Y-116465002D01*
X76934750Y-116426589D01*
X76885861Y-116377700D01*
X76847448Y-116320211D01*
X76820989Y-116256333D01*
X76807500Y-116188520D01*
X76807500Y-116119380D01*
X76820989Y-116051567D01*
X76847448Y-115987689D01*
X76885861Y-115930200D01*
X76934750Y-115881311D01*
X76992239Y-115842898D01*
X77056117Y-115816439D01*
X77123930Y-115802950D01*
X77193070Y-115802950D01*
X77260883Y-115816439D01*
X77260883Y-115816439D01*
G37*
G36*
X77260883Y-111816439D02*
X77324761Y-111842898D01*
X77382250Y-111881311D01*
X77431139Y-111930200D01*
X77469552Y-111987689D01*
X77496011Y-112051567D01*
X77509500Y-112119380D01*
X77509500Y-112188520D01*
X77496011Y-112256333D01*
X77469552Y-112320211D01*
X77431139Y-112377700D01*
X77382250Y-112426589D01*
X77324761Y-112465002D01*
X77260883Y-112491461D01*
X77193070Y-112504950D01*
X77123930Y-112504950D01*
X77056117Y-112491461D01*
X76992239Y-112465002D01*
X76934750Y-112426589D01*
X76885861Y-112377700D01*
X76847448Y-112320211D01*
X76820989Y-112256333D01*
X76807500Y-112188520D01*
X76807500Y-112119380D01*
X76820989Y-112051567D01*
X76847448Y-111987689D01*
X76885861Y-111930200D01*
X76934750Y-111881311D01*
X76992239Y-111842898D01*
X77056117Y-111816439D01*
X77123930Y-111802950D01*
X77193070Y-111802950D01*
X77260883Y-111816439D01*
X77260883Y-111816439D01*
G37*
G36*
X88248442Y-105633118D02*
X88314627Y-105639637D01*
X88427853Y-105673984D01*
X88484467Y-105691157D01*
X88623087Y-105765252D01*
X88640991Y-105774822D01*
X88676729Y-105804152D01*
X88778186Y-105887414D01*
X88861448Y-105988871D01*
X88890778Y-106024609D01*
X88890779Y-106024611D01*
X88974443Y-106181133D01*
X88974443Y-106181134D01*
X89025963Y-106350973D01*
X89043359Y-106527600D01*
X89025963Y-106704227D01*
X88991616Y-106817453D01*
X88974443Y-106874067D01*
X88900348Y-107012687D01*
X88890778Y-107030591D01*
X88861448Y-107066329D01*
X88778186Y-107167786D01*
X88676729Y-107251048D01*
X88640991Y-107280378D01*
X88640989Y-107280379D01*
X88484467Y-107364043D01*
X88427853Y-107381216D01*
X88314627Y-107415563D01*
X88248442Y-107422082D01*
X88182260Y-107428600D01*
X88093740Y-107428600D01*
X88027558Y-107422082D01*
X87961373Y-107415563D01*
X87848147Y-107381216D01*
X87791533Y-107364043D01*
X87635011Y-107280379D01*
X87635009Y-107280378D01*
X87599271Y-107251048D01*
X87497814Y-107167786D01*
X87414552Y-107066329D01*
X87385222Y-107030591D01*
X87375652Y-107012687D01*
X87301557Y-106874067D01*
X87284384Y-106817453D01*
X87250037Y-106704227D01*
X87232641Y-106527600D01*
X87250037Y-106350973D01*
X87301557Y-106181134D01*
X87301557Y-106181133D01*
X87385221Y-106024611D01*
X87385222Y-106024609D01*
X87414552Y-105988871D01*
X87497814Y-105887414D01*
X87599271Y-105804152D01*
X87635009Y-105774822D01*
X87652913Y-105765252D01*
X87791533Y-105691157D01*
X87848147Y-105673984D01*
X87961373Y-105639637D01*
X88027558Y-105633118D01*
X88093740Y-105626600D01*
X88182260Y-105626600D01*
X88248442Y-105633118D01*
X88248442Y-105633118D01*
G37*
G36*
X75548442Y-105633118D02*
X75614627Y-105639637D01*
X75727853Y-105673984D01*
X75784467Y-105691157D01*
X75923087Y-105765252D01*
X75940991Y-105774822D01*
X75976729Y-105804152D01*
X76078186Y-105887414D01*
X76161448Y-105988871D01*
X76190778Y-106024609D01*
X76190779Y-106024611D01*
X76274443Y-106181133D01*
X76274443Y-106181134D01*
X76325963Y-106350973D01*
X76343359Y-106527600D01*
X76325963Y-106704227D01*
X76291616Y-106817453D01*
X76274443Y-106874067D01*
X76200348Y-107012687D01*
X76190778Y-107030591D01*
X76161448Y-107066329D01*
X76078186Y-107167786D01*
X75976729Y-107251048D01*
X75940991Y-107280378D01*
X75940989Y-107280379D01*
X75784467Y-107364043D01*
X75727853Y-107381216D01*
X75614627Y-107415563D01*
X75548442Y-107422082D01*
X75482260Y-107428600D01*
X75393740Y-107428600D01*
X75327558Y-107422082D01*
X75261373Y-107415563D01*
X75148147Y-107381216D01*
X75091533Y-107364043D01*
X74935011Y-107280379D01*
X74935009Y-107280378D01*
X74899271Y-107251048D01*
X74797814Y-107167786D01*
X74714552Y-107066329D01*
X74685222Y-107030591D01*
X74675652Y-107012687D01*
X74601557Y-106874067D01*
X74584384Y-106817453D01*
X74550037Y-106704227D01*
X74532641Y-106527600D01*
X74550037Y-106350973D01*
X74601557Y-106181134D01*
X74601557Y-106181133D01*
X74685221Y-106024611D01*
X74685222Y-106024609D01*
X74714552Y-105988871D01*
X74797814Y-105887414D01*
X74899271Y-105804152D01*
X74935009Y-105774822D01*
X74952913Y-105765252D01*
X75091533Y-105691157D01*
X75148147Y-105673984D01*
X75261373Y-105639637D01*
X75327558Y-105633118D01*
X75393740Y-105626600D01*
X75482260Y-105626600D01*
X75548442Y-105633118D01*
X75548442Y-105633118D01*
G37*
G36*
X78088442Y-105633118D02*
X78154627Y-105639637D01*
X78267853Y-105673984D01*
X78324467Y-105691157D01*
X78463087Y-105765252D01*
X78480991Y-105774822D01*
X78516729Y-105804152D01*
X78618186Y-105887414D01*
X78701448Y-105988871D01*
X78730778Y-106024609D01*
X78730779Y-106024611D01*
X78814443Y-106181133D01*
X78814443Y-106181134D01*
X78865963Y-106350973D01*
X78883359Y-106527600D01*
X78865963Y-106704227D01*
X78831616Y-106817453D01*
X78814443Y-106874067D01*
X78740348Y-107012687D01*
X78730778Y-107030591D01*
X78701448Y-107066329D01*
X78618186Y-107167786D01*
X78516729Y-107251048D01*
X78480991Y-107280378D01*
X78480989Y-107280379D01*
X78324467Y-107364043D01*
X78267853Y-107381216D01*
X78154627Y-107415563D01*
X78088442Y-107422082D01*
X78022260Y-107428600D01*
X77933740Y-107428600D01*
X77867558Y-107422082D01*
X77801373Y-107415563D01*
X77688147Y-107381216D01*
X77631533Y-107364043D01*
X77475011Y-107280379D01*
X77475009Y-107280378D01*
X77439271Y-107251048D01*
X77337814Y-107167786D01*
X77254552Y-107066329D01*
X77225222Y-107030591D01*
X77215652Y-107012687D01*
X77141557Y-106874067D01*
X77124384Y-106817453D01*
X77090037Y-106704227D01*
X77072641Y-106527600D01*
X77090037Y-106350973D01*
X77141557Y-106181134D01*
X77141557Y-106181133D01*
X77225221Y-106024611D01*
X77225222Y-106024609D01*
X77254552Y-105988871D01*
X77337814Y-105887414D01*
X77439271Y-105804152D01*
X77475009Y-105774822D01*
X77492913Y-105765252D01*
X77631533Y-105691157D01*
X77688147Y-105673984D01*
X77801373Y-105639637D01*
X77867558Y-105633118D01*
X77933740Y-105626600D01*
X78022260Y-105626600D01*
X78088442Y-105633118D01*
X78088442Y-105633118D01*
G37*
G36*
X80628442Y-105633118D02*
X80694627Y-105639637D01*
X80807853Y-105673984D01*
X80864467Y-105691157D01*
X81003087Y-105765252D01*
X81020991Y-105774822D01*
X81056729Y-105804152D01*
X81158186Y-105887414D01*
X81241448Y-105988871D01*
X81270778Y-106024609D01*
X81270779Y-106024611D01*
X81354443Y-106181133D01*
X81354443Y-106181134D01*
X81405963Y-106350973D01*
X81423359Y-106527600D01*
X81405963Y-106704227D01*
X81371616Y-106817453D01*
X81354443Y-106874067D01*
X81280348Y-107012687D01*
X81270778Y-107030591D01*
X81241448Y-107066329D01*
X81158186Y-107167786D01*
X81056729Y-107251048D01*
X81020991Y-107280378D01*
X81020989Y-107280379D01*
X80864467Y-107364043D01*
X80807853Y-107381216D01*
X80694627Y-107415563D01*
X80628442Y-107422082D01*
X80562260Y-107428600D01*
X80473740Y-107428600D01*
X80407558Y-107422082D01*
X80341373Y-107415563D01*
X80228147Y-107381216D01*
X80171533Y-107364043D01*
X80015011Y-107280379D01*
X80015009Y-107280378D01*
X79979271Y-107251048D01*
X79877814Y-107167786D01*
X79794552Y-107066329D01*
X79765222Y-107030591D01*
X79755652Y-107012687D01*
X79681557Y-106874067D01*
X79664384Y-106817453D01*
X79630037Y-106704227D01*
X79612641Y-106527600D01*
X79630037Y-106350973D01*
X79681557Y-106181134D01*
X79681557Y-106181133D01*
X79765221Y-106024611D01*
X79765222Y-106024609D01*
X79794552Y-105988871D01*
X79877814Y-105887414D01*
X79979271Y-105804152D01*
X80015009Y-105774822D01*
X80032913Y-105765252D01*
X80171533Y-105691157D01*
X80228147Y-105673984D01*
X80341373Y-105639637D01*
X80407558Y-105633118D01*
X80473740Y-105626600D01*
X80562260Y-105626600D01*
X80628442Y-105633118D01*
X80628442Y-105633118D01*
G37*
G36*
X83168442Y-105633118D02*
X83234627Y-105639637D01*
X83347853Y-105673984D01*
X83404467Y-105691157D01*
X83543087Y-105765252D01*
X83560991Y-105774822D01*
X83596729Y-105804152D01*
X83698186Y-105887414D01*
X83781448Y-105988871D01*
X83810778Y-106024609D01*
X83810779Y-106024611D01*
X83894443Y-106181133D01*
X83894443Y-106181134D01*
X83945963Y-106350973D01*
X83963359Y-106527600D01*
X83945963Y-106704227D01*
X83911616Y-106817453D01*
X83894443Y-106874067D01*
X83820348Y-107012687D01*
X83810778Y-107030591D01*
X83781448Y-107066329D01*
X83698186Y-107167786D01*
X83596729Y-107251048D01*
X83560991Y-107280378D01*
X83560989Y-107280379D01*
X83404467Y-107364043D01*
X83347853Y-107381216D01*
X83234627Y-107415563D01*
X83168442Y-107422082D01*
X83102260Y-107428600D01*
X83013740Y-107428600D01*
X82947558Y-107422082D01*
X82881373Y-107415563D01*
X82768147Y-107381216D01*
X82711533Y-107364043D01*
X82555011Y-107280379D01*
X82555009Y-107280378D01*
X82519271Y-107251048D01*
X82417814Y-107167786D01*
X82334552Y-107066329D01*
X82305222Y-107030591D01*
X82295652Y-107012687D01*
X82221557Y-106874067D01*
X82204384Y-106817453D01*
X82170037Y-106704227D01*
X82152641Y-106527600D01*
X82170037Y-106350973D01*
X82221557Y-106181134D01*
X82221557Y-106181133D01*
X82305221Y-106024611D01*
X82305222Y-106024609D01*
X82334552Y-105988871D01*
X82417814Y-105887414D01*
X82519271Y-105804152D01*
X82555009Y-105774822D01*
X82572913Y-105765252D01*
X82711533Y-105691157D01*
X82768147Y-105673984D01*
X82881373Y-105639637D01*
X82947558Y-105633118D01*
X83013740Y-105626600D01*
X83102260Y-105626600D01*
X83168442Y-105633118D01*
X83168442Y-105633118D01*
G37*
G36*
X85708442Y-105633118D02*
X85774627Y-105639637D01*
X85887853Y-105673984D01*
X85944467Y-105691157D01*
X86083087Y-105765252D01*
X86100991Y-105774822D01*
X86136729Y-105804152D01*
X86238186Y-105887414D01*
X86321448Y-105988871D01*
X86350778Y-106024609D01*
X86350779Y-106024611D01*
X86434443Y-106181133D01*
X86434443Y-106181134D01*
X86485963Y-106350973D01*
X86503359Y-106527600D01*
X86485963Y-106704227D01*
X86451616Y-106817453D01*
X86434443Y-106874067D01*
X86360348Y-107012687D01*
X86350778Y-107030591D01*
X86321448Y-107066329D01*
X86238186Y-107167786D01*
X86136729Y-107251048D01*
X86100991Y-107280378D01*
X86100989Y-107280379D01*
X85944467Y-107364043D01*
X85887853Y-107381216D01*
X85774627Y-107415563D01*
X85708442Y-107422082D01*
X85642260Y-107428600D01*
X85553740Y-107428600D01*
X85487558Y-107422082D01*
X85421373Y-107415563D01*
X85308147Y-107381216D01*
X85251533Y-107364043D01*
X85095011Y-107280379D01*
X85095009Y-107280378D01*
X85059271Y-107251048D01*
X84957814Y-107167786D01*
X84874552Y-107066329D01*
X84845222Y-107030591D01*
X84835652Y-107012687D01*
X84761557Y-106874067D01*
X84744384Y-106817453D01*
X84710037Y-106704227D01*
X84692641Y-106527600D01*
X84710037Y-106350973D01*
X84761557Y-106181134D01*
X84761557Y-106181133D01*
X84845221Y-106024611D01*
X84845222Y-106024609D01*
X84874552Y-105988871D01*
X84957814Y-105887414D01*
X85059271Y-105804152D01*
X85095009Y-105774822D01*
X85112913Y-105765252D01*
X85251533Y-105691157D01*
X85308147Y-105673984D01*
X85421373Y-105639637D01*
X85487558Y-105633118D01*
X85553740Y-105626600D01*
X85642260Y-105626600D01*
X85708442Y-105633118D01*
X85708442Y-105633118D01*
G37*
G36*
X90788442Y-105633118D02*
X90854627Y-105639637D01*
X90967853Y-105673984D01*
X91024467Y-105691157D01*
X91163087Y-105765252D01*
X91180991Y-105774822D01*
X91216729Y-105804152D01*
X91318186Y-105887414D01*
X91401448Y-105988871D01*
X91430778Y-106024609D01*
X91430779Y-106024611D01*
X91514443Y-106181133D01*
X91514443Y-106181134D01*
X91565963Y-106350973D01*
X91583359Y-106527600D01*
X91565963Y-106704227D01*
X91531616Y-106817453D01*
X91514443Y-106874067D01*
X91440348Y-107012687D01*
X91430778Y-107030591D01*
X91401448Y-107066329D01*
X91318186Y-107167786D01*
X91216729Y-107251048D01*
X91180991Y-107280378D01*
X91180989Y-107280379D01*
X91024467Y-107364043D01*
X90967853Y-107381216D01*
X90854627Y-107415563D01*
X90788442Y-107422082D01*
X90722260Y-107428600D01*
X90633740Y-107428600D01*
X90567558Y-107422082D01*
X90501373Y-107415563D01*
X90388147Y-107381216D01*
X90331533Y-107364043D01*
X90175011Y-107280379D01*
X90175009Y-107280378D01*
X90139271Y-107251048D01*
X90037814Y-107167786D01*
X89954552Y-107066329D01*
X89925222Y-107030591D01*
X89915652Y-107012687D01*
X89841557Y-106874067D01*
X89824384Y-106817453D01*
X89790037Y-106704227D01*
X89772641Y-106527600D01*
X89790037Y-106350973D01*
X89841557Y-106181134D01*
X89841557Y-106181133D01*
X89925221Y-106024611D01*
X89925222Y-106024609D01*
X89954552Y-105988871D01*
X90037814Y-105887414D01*
X90139271Y-105804152D01*
X90175009Y-105774822D01*
X90192913Y-105765252D01*
X90331533Y-105691157D01*
X90388147Y-105673984D01*
X90501373Y-105639637D01*
X90567558Y-105633118D01*
X90633740Y-105626600D01*
X90722260Y-105626600D01*
X90788442Y-105633118D01*
X90788442Y-105633118D01*
G37*
G36*
X93328442Y-105633118D02*
X93394627Y-105639637D01*
X93507853Y-105673984D01*
X93564467Y-105691157D01*
X93703087Y-105765252D01*
X93720991Y-105774822D01*
X93756729Y-105804152D01*
X93858186Y-105887414D01*
X93941448Y-105988871D01*
X93970778Y-106024609D01*
X93970779Y-106024611D01*
X94054443Y-106181133D01*
X94054443Y-106181134D01*
X94105963Y-106350973D01*
X94123359Y-106527600D01*
X94105963Y-106704227D01*
X94071616Y-106817453D01*
X94054443Y-106874067D01*
X93980348Y-107012687D01*
X93970778Y-107030591D01*
X93941448Y-107066329D01*
X93858186Y-107167786D01*
X93756729Y-107251048D01*
X93720991Y-107280378D01*
X93720989Y-107280379D01*
X93564467Y-107364043D01*
X93507853Y-107381216D01*
X93394627Y-107415563D01*
X93328442Y-107422082D01*
X93262260Y-107428600D01*
X93173740Y-107428600D01*
X93107558Y-107422082D01*
X93041373Y-107415563D01*
X92928147Y-107381216D01*
X92871533Y-107364043D01*
X92715011Y-107280379D01*
X92715009Y-107280378D01*
X92679271Y-107251048D01*
X92577814Y-107167786D01*
X92494552Y-107066329D01*
X92465222Y-107030591D01*
X92455652Y-107012687D01*
X92381557Y-106874067D01*
X92364384Y-106817453D01*
X92330037Y-106704227D01*
X92312641Y-106527600D01*
X92330037Y-106350973D01*
X92381557Y-106181134D01*
X92381557Y-106181133D01*
X92465221Y-106024611D01*
X92465222Y-106024609D01*
X92494552Y-105988871D01*
X92577814Y-105887414D01*
X92679271Y-105804152D01*
X92715009Y-105774822D01*
X92732913Y-105765252D01*
X92871533Y-105691157D01*
X92928147Y-105673984D01*
X93041373Y-105639637D01*
X93107558Y-105633118D01*
X93173740Y-105626600D01*
X93262260Y-105626600D01*
X93328442Y-105633118D01*
X93328442Y-105633118D01*
G37*
G36*
X96659000Y-107428600D02*
X94857000Y-107428600D01*
X94857000Y-105626600D01*
X96659000Y-105626600D01*
X96659000Y-107428600D01*
X96659000Y-107428600D01*
G37*
M02*
