M48
;DRILL file {KiCad (5.0.2)-1} date 04.10.2019 12:42:36
;FORMAT={-:-/ absolute / metric / decimal}
FMAT,2
METRIC,TZ
T1C0.400
T2C1.000
%
G90
G05
T1
X81.432Y-110.642
X83.007Y-114.666
X83.464Y-112.979
X83.502Y-111.252
X87.122Y-113.589
X87.376Y-114.859
X89.103Y-119.38
X90.475Y-112.471
X90.475Y-114.452
X91.542Y-117.805
X92.507Y-114.503
X92.558Y-112.471
T2
X75.438Y-121.755
X77.978Y-121.755
X80.518Y-121.755
X83.058Y-121.755
X85.598Y-121.755
X88.138Y-121.755
X90.678Y-121.755
X93.218Y-121.755
X95.758Y-121.755
X75.438Y-106.528
X77.978Y-106.528
X80.518Y-106.528
X83.058Y-106.528
X85.598Y-106.528
X88.138Y-106.528
X90.678Y-106.528
X93.218Y-106.528
X95.758Y-106.528
T0
M30
