G04 #@! TF.GenerationSoftware,KiCad,Pcbnew,(5.0.2)-1*
G04 #@! TF.CreationDate,2019-10-04T12:42:43+03:00*
G04 #@! TF.ProjectId,Micro-USB-UART,4d696372-6f2d-4555-9342-2d554152542e,rev?*
G04 #@! TF.SameCoordinates,Original*
G04 #@! TF.FileFunction,Paste,Top*
G04 #@! TF.FilePolarity,Positive*
%FSLAX46Y46*%
G04 Gerber Fmt 4.6, Leading zero omitted, Abs format (unit mm)*
G04 Created by KiCad (PCBNEW (5.0.2)-1) date 04.10.2019 12:42:43*
%MOMM*%
%LPD*%
G01*
G04 APERTURE LIST*
%ADD10C,0.100000*%
%ADD11C,0.875000*%
%ADD12R,0.500000X1.075000*%
%ADD13R,0.800000X0.600000*%
%ADD14R,1.000000X0.300000*%
%ADD15R,0.300000X1.000000*%
%ADD16R,3.350000X3.350000*%
%ADD17R,1.500000X0.400000*%
%ADD18R,1.400000X1.400000*%
%ADD19R,1.000000X1.000000*%
G04 APERTURE END LIST*
D10*
G04 #@! TO.C,C1*
G36*
X87653691Y-114422153D02*
X87674926Y-114425303D01*
X87695750Y-114430519D01*
X87715962Y-114437751D01*
X87735368Y-114446930D01*
X87753781Y-114457966D01*
X87771024Y-114470754D01*
X87786930Y-114485170D01*
X87801346Y-114501076D01*
X87814134Y-114518319D01*
X87825170Y-114536732D01*
X87834349Y-114556138D01*
X87841581Y-114576350D01*
X87846797Y-114597174D01*
X87849947Y-114618409D01*
X87851000Y-114639850D01*
X87851000Y-115077350D01*
X87849947Y-115098791D01*
X87846797Y-115120026D01*
X87841581Y-115140850D01*
X87834349Y-115161062D01*
X87825170Y-115180468D01*
X87814134Y-115198881D01*
X87801346Y-115216124D01*
X87786930Y-115232030D01*
X87771024Y-115246446D01*
X87753781Y-115259234D01*
X87735368Y-115270270D01*
X87715962Y-115279449D01*
X87695750Y-115286681D01*
X87674926Y-115291897D01*
X87653691Y-115295047D01*
X87632250Y-115296100D01*
X87119750Y-115296100D01*
X87098309Y-115295047D01*
X87077074Y-115291897D01*
X87056250Y-115286681D01*
X87036038Y-115279449D01*
X87016632Y-115270270D01*
X86998219Y-115259234D01*
X86980976Y-115246446D01*
X86965070Y-115232030D01*
X86950654Y-115216124D01*
X86937866Y-115198881D01*
X86926830Y-115180468D01*
X86917651Y-115161062D01*
X86910419Y-115140850D01*
X86905203Y-115120026D01*
X86902053Y-115098791D01*
X86901000Y-115077350D01*
X86901000Y-114639850D01*
X86902053Y-114618409D01*
X86905203Y-114597174D01*
X86910419Y-114576350D01*
X86917651Y-114556138D01*
X86926830Y-114536732D01*
X86937866Y-114518319D01*
X86950654Y-114501076D01*
X86965070Y-114485170D01*
X86980976Y-114470754D01*
X86998219Y-114457966D01*
X87016632Y-114446930D01*
X87036038Y-114437751D01*
X87056250Y-114430519D01*
X87077074Y-114425303D01*
X87098309Y-114422153D01*
X87119750Y-114421100D01*
X87632250Y-114421100D01*
X87653691Y-114422153D01*
X87653691Y-114422153D01*
G37*
D11*
X87376000Y-114858600D03*
D10*
G36*
X87653691Y-115997153D02*
X87674926Y-116000303D01*
X87695750Y-116005519D01*
X87715962Y-116012751D01*
X87735368Y-116021930D01*
X87753781Y-116032966D01*
X87771024Y-116045754D01*
X87786930Y-116060170D01*
X87801346Y-116076076D01*
X87814134Y-116093319D01*
X87825170Y-116111732D01*
X87834349Y-116131138D01*
X87841581Y-116151350D01*
X87846797Y-116172174D01*
X87849947Y-116193409D01*
X87851000Y-116214850D01*
X87851000Y-116652350D01*
X87849947Y-116673791D01*
X87846797Y-116695026D01*
X87841581Y-116715850D01*
X87834349Y-116736062D01*
X87825170Y-116755468D01*
X87814134Y-116773881D01*
X87801346Y-116791124D01*
X87786930Y-116807030D01*
X87771024Y-116821446D01*
X87753781Y-116834234D01*
X87735368Y-116845270D01*
X87715962Y-116854449D01*
X87695750Y-116861681D01*
X87674926Y-116866897D01*
X87653691Y-116870047D01*
X87632250Y-116871100D01*
X87119750Y-116871100D01*
X87098309Y-116870047D01*
X87077074Y-116866897D01*
X87056250Y-116861681D01*
X87036038Y-116854449D01*
X87016632Y-116845270D01*
X86998219Y-116834234D01*
X86980976Y-116821446D01*
X86965070Y-116807030D01*
X86950654Y-116791124D01*
X86937866Y-116773881D01*
X86926830Y-116755468D01*
X86917651Y-116736062D01*
X86910419Y-116715850D01*
X86905203Y-116695026D01*
X86902053Y-116673791D01*
X86901000Y-116652350D01*
X86901000Y-116214850D01*
X86902053Y-116193409D01*
X86905203Y-116172174D01*
X86910419Y-116151350D01*
X86917651Y-116131138D01*
X86926830Y-116111732D01*
X86937866Y-116093319D01*
X86950654Y-116076076D01*
X86965070Y-116060170D01*
X86980976Y-116045754D01*
X86998219Y-116032966D01*
X87016632Y-116021930D01*
X87036038Y-116012751D01*
X87056250Y-116005519D01*
X87077074Y-116000303D01*
X87098309Y-115997153D01*
X87119750Y-115996100D01*
X87632250Y-115996100D01*
X87653691Y-115997153D01*
X87653691Y-115997153D01*
G37*
D11*
X87376000Y-116433600D03*
G04 #@! TD*
D10*
G04 #@! TO.C,C2*
G36*
X86129691Y-115997153D02*
X86150926Y-116000303D01*
X86171750Y-116005519D01*
X86191962Y-116012751D01*
X86211368Y-116021930D01*
X86229781Y-116032966D01*
X86247024Y-116045754D01*
X86262930Y-116060170D01*
X86277346Y-116076076D01*
X86290134Y-116093319D01*
X86301170Y-116111732D01*
X86310349Y-116131138D01*
X86317581Y-116151350D01*
X86322797Y-116172174D01*
X86325947Y-116193409D01*
X86327000Y-116214850D01*
X86327000Y-116652350D01*
X86325947Y-116673791D01*
X86322797Y-116695026D01*
X86317581Y-116715850D01*
X86310349Y-116736062D01*
X86301170Y-116755468D01*
X86290134Y-116773881D01*
X86277346Y-116791124D01*
X86262930Y-116807030D01*
X86247024Y-116821446D01*
X86229781Y-116834234D01*
X86211368Y-116845270D01*
X86191962Y-116854449D01*
X86171750Y-116861681D01*
X86150926Y-116866897D01*
X86129691Y-116870047D01*
X86108250Y-116871100D01*
X85595750Y-116871100D01*
X85574309Y-116870047D01*
X85553074Y-116866897D01*
X85532250Y-116861681D01*
X85512038Y-116854449D01*
X85492632Y-116845270D01*
X85474219Y-116834234D01*
X85456976Y-116821446D01*
X85441070Y-116807030D01*
X85426654Y-116791124D01*
X85413866Y-116773881D01*
X85402830Y-116755468D01*
X85393651Y-116736062D01*
X85386419Y-116715850D01*
X85381203Y-116695026D01*
X85378053Y-116673791D01*
X85377000Y-116652350D01*
X85377000Y-116214850D01*
X85378053Y-116193409D01*
X85381203Y-116172174D01*
X85386419Y-116151350D01*
X85393651Y-116131138D01*
X85402830Y-116111732D01*
X85413866Y-116093319D01*
X85426654Y-116076076D01*
X85441070Y-116060170D01*
X85456976Y-116045754D01*
X85474219Y-116032966D01*
X85492632Y-116021930D01*
X85512038Y-116012751D01*
X85532250Y-116005519D01*
X85553074Y-116000303D01*
X85574309Y-115997153D01*
X85595750Y-115996100D01*
X86108250Y-115996100D01*
X86129691Y-115997153D01*
X86129691Y-115997153D01*
G37*
D11*
X85852000Y-116433600D03*
D10*
G36*
X86129691Y-114422153D02*
X86150926Y-114425303D01*
X86171750Y-114430519D01*
X86191962Y-114437751D01*
X86211368Y-114446930D01*
X86229781Y-114457966D01*
X86247024Y-114470754D01*
X86262930Y-114485170D01*
X86277346Y-114501076D01*
X86290134Y-114518319D01*
X86301170Y-114536732D01*
X86310349Y-114556138D01*
X86317581Y-114576350D01*
X86322797Y-114597174D01*
X86325947Y-114618409D01*
X86327000Y-114639850D01*
X86327000Y-115077350D01*
X86325947Y-115098791D01*
X86322797Y-115120026D01*
X86317581Y-115140850D01*
X86310349Y-115161062D01*
X86301170Y-115180468D01*
X86290134Y-115198881D01*
X86277346Y-115216124D01*
X86262930Y-115232030D01*
X86247024Y-115246446D01*
X86229781Y-115259234D01*
X86211368Y-115270270D01*
X86191962Y-115279449D01*
X86171750Y-115286681D01*
X86150926Y-115291897D01*
X86129691Y-115295047D01*
X86108250Y-115296100D01*
X85595750Y-115296100D01*
X85574309Y-115295047D01*
X85553074Y-115291897D01*
X85532250Y-115286681D01*
X85512038Y-115279449D01*
X85492632Y-115270270D01*
X85474219Y-115259234D01*
X85456976Y-115246446D01*
X85441070Y-115232030D01*
X85426654Y-115216124D01*
X85413866Y-115198881D01*
X85402830Y-115180468D01*
X85393651Y-115161062D01*
X85386419Y-115140850D01*
X85381203Y-115120026D01*
X85378053Y-115098791D01*
X85377000Y-115077350D01*
X85377000Y-114639850D01*
X85378053Y-114618409D01*
X85381203Y-114597174D01*
X85386419Y-114576350D01*
X85393651Y-114556138D01*
X85402830Y-114536732D01*
X85413866Y-114518319D01*
X85426654Y-114501076D01*
X85441070Y-114485170D01*
X85456976Y-114470754D01*
X85474219Y-114457966D01*
X85492632Y-114446930D01*
X85512038Y-114437751D01*
X85532250Y-114430519D01*
X85553074Y-114425303D01*
X85574309Y-114422153D01*
X85595750Y-114421100D01*
X86108250Y-114421100D01*
X86129691Y-114422153D01*
X86129691Y-114422153D01*
G37*
D11*
X85852000Y-114858600D03*
G04 #@! TD*
D12*
G04 #@! TO.C,D1*
X81407000Y-110661500D03*
X81407000Y-112985500D03*
G04 #@! TD*
D13*
G04 #@! TO.C,D2*
X83502500Y-112991000D03*
X83502500Y-111291000D03*
G04 #@! TD*
G04 #@! TO.C,D3*
X81534000Y-116466100D03*
X81534000Y-114766100D03*
G04 #@! TD*
G04 #@! TO.C,D4*
X82994500Y-114766100D03*
X82994500Y-116466100D03*
G04 #@! TD*
D14*
G04 #@! TO.C,IC1*
X89140800Y-111987200D03*
X89140800Y-112487200D03*
X89140800Y-112987200D03*
X89140800Y-113487200D03*
X89140800Y-113987200D03*
X89140800Y-114487200D03*
X89140800Y-114987200D03*
D15*
X89990800Y-115837200D03*
X90490800Y-115837200D03*
X90990800Y-115837200D03*
X91490800Y-115837200D03*
X91990800Y-115837200D03*
X92490800Y-115837200D03*
X92990800Y-115837200D03*
D14*
X93840800Y-114987200D03*
X93840800Y-114487200D03*
X93840800Y-113987200D03*
X93840800Y-113487200D03*
X93840800Y-112987200D03*
X93840800Y-112487200D03*
X93840800Y-111987200D03*
D15*
X92990800Y-111137200D03*
X92490800Y-111137200D03*
X91990800Y-111137200D03*
X91490800Y-111137200D03*
X90990800Y-111137200D03*
X90490800Y-111137200D03*
X89990800Y-111137200D03*
D16*
X91490800Y-113487200D03*
G04 #@! TD*
D10*
G04 #@! TO.C,R1*
G36*
X89380891Y-117343253D02*
X89402126Y-117346403D01*
X89422950Y-117351619D01*
X89443162Y-117358851D01*
X89462568Y-117368030D01*
X89480981Y-117379066D01*
X89498224Y-117391854D01*
X89514130Y-117406270D01*
X89528546Y-117422176D01*
X89541334Y-117439419D01*
X89552370Y-117457832D01*
X89561549Y-117477238D01*
X89568781Y-117497450D01*
X89573997Y-117518274D01*
X89577147Y-117539509D01*
X89578200Y-117560950D01*
X89578200Y-117998450D01*
X89577147Y-118019891D01*
X89573997Y-118041126D01*
X89568781Y-118061950D01*
X89561549Y-118082162D01*
X89552370Y-118101568D01*
X89541334Y-118119981D01*
X89528546Y-118137224D01*
X89514130Y-118153130D01*
X89498224Y-118167546D01*
X89480981Y-118180334D01*
X89462568Y-118191370D01*
X89443162Y-118200549D01*
X89422950Y-118207781D01*
X89402126Y-118212997D01*
X89380891Y-118216147D01*
X89359450Y-118217200D01*
X88846950Y-118217200D01*
X88825509Y-118216147D01*
X88804274Y-118212997D01*
X88783450Y-118207781D01*
X88763238Y-118200549D01*
X88743832Y-118191370D01*
X88725419Y-118180334D01*
X88708176Y-118167546D01*
X88692270Y-118153130D01*
X88677854Y-118137224D01*
X88665066Y-118119981D01*
X88654030Y-118101568D01*
X88644851Y-118082162D01*
X88637619Y-118061950D01*
X88632403Y-118041126D01*
X88629253Y-118019891D01*
X88628200Y-117998450D01*
X88628200Y-117560950D01*
X88629253Y-117539509D01*
X88632403Y-117518274D01*
X88637619Y-117497450D01*
X88644851Y-117477238D01*
X88654030Y-117457832D01*
X88665066Y-117439419D01*
X88677854Y-117422176D01*
X88692270Y-117406270D01*
X88708176Y-117391854D01*
X88725419Y-117379066D01*
X88743832Y-117368030D01*
X88763238Y-117358851D01*
X88783450Y-117351619D01*
X88804274Y-117346403D01*
X88825509Y-117343253D01*
X88846950Y-117342200D01*
X89359450Y-117342200D01*
X89380891Y-117343253D01*
X89380891Y-117343253D01*
G37*
D11*
X89103200Y-117779700D03*
D10*
G36*
X89380891Y-118918253D02*
X89402126Y-118921403D01*
X89422950Y-118926619D01*
X89443162Y-118933851D01*
X89462568Y-118943030D01*
X89480981Y-118954066D01*
X89498224Y-118966854D01*
X89514130Y-118981270D01*
X89528546Y-118997176D01*
X89541334Y-119014419D01*
X89552370Y-119032832D01*
X89561549Y-119052238D01*
X89568781Y-119072450D01*
X89573997Y-119093274D01*
X89577147Y-119114509D01*
X89578200Y-119135950D01*
X89578200Y-119573450D01*
X89577147Y-119594891D01*
X89573997Y-119616126D01*
X89568781Y-119636950D01*
X89561549Y-119657162D01*
X89552370Y-119676568D01*
X89541334Y-119694981D01*
X89528546Y-119712224D01*
X89514130Y-119728130D01*
X89498224Y-119742546D01*
X89480981Y-119755334D01*
X89462568Y-119766370D01*
X89443162Y-119775549D01*
X89422950Y-119782781D01*
X89402126Y-119787997D01*
X89380891Y-119791147D01*
X89359450Y-119792200D01*
X88846950Y-119792200D01*
X88825509Y-119791147D01*
X88804274Y-119787997D01*
X88783450Y-119782781D01*
X88763238Y-119775549D01*
X88743832Y-119766370D01*
X88725419Y-119755334D01*
X88708176Y-119742546D01*
X88692270Y-119728130D01*
X88677854Y-119712224D01*
X88665066Y-119694981D01*
X88654030Y-119676568D01*
X88644851Y-119657162D01*
X88637619Y-119636950D01*
X88632403Y-119616126D01*
X88629253Y-119594891D01*
X88628200Y-119573450D01*
X88628200Y-119135950D01*
X88629253Y-119114509D01*
X88632403Y-119093274D01*
X88637619Y-119072450D01*
X88644851Y-119052238D01*
X88654030Y-119032832D01*
X88665066Y-119014419D01*
X88677854Y-118997176D01*
X88692270Y-118981270D01*
X88708176Y-118966854D01*
X88725419Y-118954066D01*
X88743832Y-118943030D01*
X88763238Y-118933851D01*
X88783450Y-118926619D01*
X88804274Y-118921403D01*
X88825509Y-118918253D01*
X88846950Y-118917200D01*
X89359450Y-118917200D01*
X89380891Y-118918253D01*
X89380891Y-118918253D01*
G37*
D11*
X89103200Y-119354700D03*
G04 #@! TD*
D10*
G04 #@! TO.C,R2*
G36*
X93343291Y-117343253D02*
X93364526Y-117346403D01*
X93385350Y-117351619D01*
X93405562Y-117358851D01*
X93424968Y-117368030D01*
X93443381Y-117379066D01*
X93460624Y-117391854D01*
X93476530Y-117406270D01*
X93490946Y-117422176D01*
X93503734Y-117439419D01*
X93514770Y-117457832D01*
X93523949Y-117477238D01*
X93531181Y-117497450D01*
X93536397Y-117518274D01*
X93539547Y-117539509D01*
X93540600Y-117560950D01*
X93540600Y-117998450D01*
X93539547Y-118019891D01*
X93536397Y-118041126D01*
X93531181Y-118061950D01*
X93523949Y-118082162D01*
X93514770Y-118101568D01*
X93503734Y-118119981D01*
X93490946Y-118137224D01*
X93476530Y-118153130D01*
X93460624Y-118167546D01*
X93443381Y-118180334D01*
X93424968Y-118191370D01*
X93405562Y-118200549D01*
X93385350Y-118207781D01*
X93364526Y-118212997D01*
X93343291Y-118216147D01*
X93321850Y-118217200D01*
X92809350Y-118217200D01*
X92787909Y-118216147D01*
X92766674Y-118212997D01*
X92745850Y-118207781D01*
X92725638Y-118200549D01*
X92706232Y-118191370D01*
X92687819Y-118180334D01*
X92670576Y-118167546D01*
X92654670Y-118153130D01*
X92640254Y-118137224D01*
X92627466Y-118119981D01*
X92616430Y-118101568D01*
X92607251Y-118082162D01*
X92600019Y-118061950D01*
X92594803Y-118041126D01*
X92591653Y-118019891D01*
X92590600Y-117998450D01*
X92590600Y-117560950D01*
X92591653Y-117539509D01*
X92594803Y-117518274D01*
X92600019Y-117497450D01*
X92607251Y-117477238D01*
X92616430Y-117457832D01*
X92627466Y-117439419D01*
X92640254Y-117422176D01*
X92654670Y-117406270D01*
X92670576Y-117391854D01*
X92687819Y-117379066D01*
X92706232Y-117368030D01*
X92725638Y-117358851D01*
X92745850Y-117351619D01*
X92766674Y-117346403D01*
X92787909Y-117343253D01*
X92809350Y-117342200D01*
X93321850Y-117342200D01*
X93343291Y-117343253D01*
X93343291Y-117343253D01*
G37*
D11*
X93065600Y-117779700D03*
D10*
G36*
X93343291Y-118918253D02*
X93364526Y-118921403D01*
X93385350Y-118926619D01*
X93405562Y-118933851D01*
X93424968Y-118943030D01*
X93443381Y-118954066D01*
X93460624Y-118966854D01*
X93476530Y-118981270D01*
X93490946Y-118997176D01*
X93503734Y-119014419D01*
X93514770Y-119032832D01*
X93523949Y-119052238D01*
X93531181Y-119072450D01*
X93536397Y-119093274D01*
X93539547Y-119114509D01*
X93540600Y-119135950D01*
X93540600Y-119573450D01*
X93539547Y-119594891D01*
X93536397Y-119616126D01*
X93531181Y-119636950D01*
X93523949Y-119657162D01*
X93514770Y-119676568D01*
X93503734Y-119694981D01*
X93490946Y-119712224D01*
X93476530Y-119728130D01*
X93460624Y-119742546D01*
X93443381Y-119755334D01*
X93424968Y-119766370D01*
X93405562Y-119775549D01*
X93385350Y-119782781D01*
X93364526Y-119787997D01*
X93343291Y-119791147D01*
X93321850Y-119792200D01*
X92809350Y-119792200D01*
X92787909Y-119791147D01*
X92766674Y-119787997D01*
X92745850Y-119782781D01*
X92725638Y-119775549D01*
X92706232Y-119766370D01*
X92687819Y-119755334D01*
X92670576Y-119742546D01*
X92654670Y-119728130D01*
X92640254Y-119712224D01*
X92627466Y-119694981D01*
X92616430Y-119676568D01*
X92607251Y-119657162D01*
X92600019Y-119636950D01*
X92594803Y-119616126D01*
X92591653Y-119594891D01*
X92590600Y-119573450D01*
X92590600Y-119135950D01*
X92591653Y-119114509D01*
X92594803Y-119093274D01*
X92600019Y-119072450D01*
X92607251Y-119052238D01*
X92616430Y-119032832D01*
X92627466Y-119014419D01*
X92640254Y-118997176D01*
X92654670Y-118981270D01*
X92670576Y-118966854D01*
X92687819Y-118954066D01*
X92706232Y-118943030D01*
X92725638Y-118933851D01*
X92745850Y-118926619D01*
X92766674Y-118921403D01*
X92787909Y-118918253D01*
X92809350Y-118917200D01*
X93321850Y-118917200D01*
X93343291Y-118918253D01*
X93343291Y-118918253D01*
G37*
D11*
X93065600Y-119354700D03*
G04 #@! TD*
D10*
G04 #@! TO.C,R3*
G36*
X91819291Y-118918253D02*
X91840526Y-118921403D01*
X91861350Y-118926619D01*
X91881562Y-118933851D01*
X91900968Y-118943030D01*
X91919381Y-118954066D01*
X91936624Y-118966854D01*
X91952530Y-118981270D01*
X91966946Y-118997176D01*
X91979734Y-119014419D01*
X91990770Y-119032832D01*
X91999949Y-119052238D01*
X92007181Y-119072450D01*
X92012397Y-119093274D01*
X92015547Y-119114509D01*
X92016600Y-119135950D01*
X92016600Y-119573450D01*
X92015547Y-119594891D01*
X92012397Y-119616126D01*
X92007181Y-119636950D01*
X91999949Y-119657162D01*
X91990770Y-119676568D01*
X91979734Y-119694981D01*
X91966946Y-119712224D01*
X91952530Y-119728130D01*
X91936624Y-119742546D01*
X91919381Y-119755334D01*
X91900968Y-119766370D01*
X91881562Y-119775549D01*
X91861350Y-119782781D01*
X91840526Y-119787997D01*
X91819291Y-119791147D01*
X91797850Y-119792200D01*
X91285350Y-119792200D01*
X91263909Y-119791147D01*
X91242674Y-119787997D01*
X91221850Y-119782781D01*
X91201638Y-119775549D01*
X91182232Y-119766370D01*
X91163819Y-119755334D01*
X91146576Y-119742546D01*
X91130670Y-119728130D01*
X91116254Y-119712224D01*
X91103466Y-119694981D01*
X91092430Y-119676568D01*
X91083251Y-119657162D01*
X91076019Y-119636950D01*
X91070803Y-119616126D01*
X91067653Y-119594891D01*
X91066600Y-119573450D01*
X91066600Y-119135950D01*
X91067653Y-119114509D01*
X91070803Y-119093274D01*
X91076019Y-119072450D01*
X91083251Y-119052238D01*
X91092430Y-119032832D01*
X91103466Y-119014419D01*
X91116254Y-118997176D01*
X91130670Y-118981270D01*
X91146576Y-118966854D01*
X91163819Y-118954066D01*
X91182232Y-118943030D01*
X91201638Y-118933851D01*
X91221850Y-118926619D01*
X91242674Y-118921403D01*
X91263909Y-118918253D01*
X91285350Y-118917200D01*
X91797850Y-118917200D01*
X91819291Y-118918253D01*
X91819291Y-118918253D01*
G37*
D11*
X91541600Y-119354700D03*
D10*
G36*
X91819291Y-117343253D02*
X91840526Y-117346403D01*
X91861350Y-117351619D01*
X91881562Y-117358851D01*
X91900968Y-117368030D01*
X91919381Y-117379066D01*
X91936624Y-117391854D01*
X91952530Y-117406270D01*
X91966946Y-117422176D01*
X91979734Y-117439419D01*
X91990770Y-117457832D01*
X91999949Y-117477238D01*
X92007181Y-117497450D01*
X92012397Y-117518274D01*
X92015547Y-117539509D01*
X92016600Y-117560950D01*
X92016600Y-117998450D01*
X92015547Y-118019891D01*
X92012397Y-118041126D01*
X92007181Y-118061950D01*
X91999949Y-118082162D01*
X91990770Y-118101568D01*
X91979734Y-118119981D01*
X91966946Y-118137224D01*
X91952530Y-118153130D01*
X91936624Y-118167546D01*
X91919381Y-118180334D01*
X91900968Y-118191370D01*
X91881562Y-118200549D01*
X91861350Y-118207781D01*
X91840526Y-118212997D01*
X91819291Y-118216147D01*
X91797850Y-118217200D01*
X91285350Y-118217200D01*
X91263909Y-118216147D01*
X91242674Y-118212997D01*
X91221850Y-118207781D01*
X91201638Y-118200549D01*
X91182232Y-118191370D01*
X91163819Y-118180334D01*
X91146576Y-118167546D01*
X91130670Y-118153130D01*
X91116254Y-118137224D01*
X91103466Y-118119981D01*
X91092430Y-118101568D01*
X91083251Y-118082162D01*
X91076019Y-118061950D01*
X91070803Y-118041126D01*
X91067653Y-118019891D01*
X91066600Y-117998450D01*
X91066600Y-117560950D01*
X91067653Y-117539509D01*
X91070803Y-117518274D01*
X91076019Y-117497450D01*
X91083251Y-117477238D01*
X91092430Y-117457832D01*
X91103466Y-117439419D01*
X91116254Y-117422176D01*
X91130670Y-117406270D01*
X91146576Y-117391854D01*
X91163819Y-117379066D01*
X91182232Y-117368030D01*
X91201638Y-117358851D01*
X91221850Y-117351619D01*
X91242674Y-117346403D01*
X91263909Y-117343253D01*
X91285350Y-117342200D01*
X91797850Y-117342200D01*
X91819291Y-117343253D01*
X91819291Y-117343253D01*
G37*
D11*
X91541600Y-117779700D03*
G04 #@! TD*
D17*
G04 #@! TO.C,USB1*
X78408500Y-112853950D03*
X78408500Y-113503950D03*
X78408500Y-114153950D03*
X78408500Y-114803950D03*
X78408500Y-115453950D03*
D18*
X77708500Y-110903950D03*
X77708500Y-117403950D03*
X75008500Y-110103950D03*
X75008500Y-118203950D03*
D19*
X73808500Y-112653950D03*
X73808500Y-115678950D03*
G04 #@! TD*
M02*
